<?xml version="1.0" encoding="UTF-8" standalone="no"?>
<svg
   xmlns:dc="http://purl.org/dc/elements/1.1/"
   xmlns:cc="http://creativecommons.org/ns#"
   xmlns:rdf="http://www.w3.org/1999/02/22-rdf-syntax-ns#"
   xmlns:svg="http://www.w3.org/2000/svg"
   xmlns="http://www.w3.org/2000/svg"
   id="svg8"
   version="1.1"
   viewBox="0 0 93.237755 16.782309"
   height="16.782309mm"
   width="93.237755mm">
  <defs
     id="defs2" />
  <metadata
     id="metadata5">
    <rdf:RDF>
      <cc:Work
         rdf:about="">
        <dc:format>image/svg+xml</dc:format>
        <dc:type
           rdf:resource="http://purl.org/dc/dcmitype/StillImage" />
        <dc:title></dc:title>
      </cc:Work>
    </rdf:RDF>
  </metadata>
  <g
     transform="translate(-59.214457,-140.44218)"
     id="layer1">
    <g
       id="g823"
       transform="matrix(0.35277777,0,0,-0.35277777,59.214457,157.22449)">
      <g
         id="g825"
         transform="scale(0.1)">
        <path
           d="M 838.434,237.859 C 838.434,106.504 731.941,0 600.582,0 469.215,0 362.73,106.504 362.73,237.859 c 0,131.364 106.485,237.86 237.852,237.86 131.359,0 237.852,-106.496 237.852,-237.86"
           style="fill:#f3be71;fill-opacity:1;fill-rule:nonzero;stroke:none"
           id="path827" />
        <path
           d="M 475.703,237.859 C 475.703,106.504 369.215,0 237.848,0 106.492,0 0,106.504 0,237.859 c 0,131.364 106.492,237.86 237.848,237.86 131.367,0 237.855,-106.496 237.855,-237.86"
           style="fill:#f4c57f;fill-opacity:1;fill-rule:nonzero;stroke:none"
           id="path829" />
        <path
           d="m 1452.9,276.699 -3.59,-0.754 c -12.54,25.618 -36.88,36.887 -53.52,36.887 -15.37,0 -30.74,-8.437 -30.74,-21.008 0,-11.511 14.61,-15.879 23.3,-18.445 l 39.71,-11.524 c 9.49,-2.812 42.77,-12.812 42.77,-46.601 0,-24.082 -18.71,-62.52 -78.12,-62.52 -10.24,0 -18.72,1.043 -28.93,3.34 -14.08,3.086 -16.15,3.614 -19.73,3.614 -6.4,0 -9.25,-2.325 -12.54,-5.665 l -11.03,69.942 3.59,0.762 c 2.29,-8.719 6.66,-24.59 21.78,-37.657 13.05,-11.269 28.67,-15.625 43.01,-15.625 20.25,0 43.53,9.727 43.53,28.692 0,15.351 -15.88,21.004 -29.94,25.136 l -37.13,10.977 c -17.42,5.352 -37.93,17.422 -37.93,42.266 0,18.691 15.88,52.754 64.03,52.754 17.44,0 33.32,-5.379 38.94,-5.379 4.86,0 9.75,1.531 13.58,5.379 l 8.96,-54.571"
           style="fill:#ef2e31;fill-opacity:1;fill-rule:nonzero;stroke:none"
           id="path831" />
        <path
           d="m 1533.49,244.688 c 3.84,0 6.91,0 11.25,-0.762 19.22,-3.313 27.69,-9.473 34.61,-14.61 l -25.1,68.407 z m 48.39,-88.086 v 5.117 c 4.36,0.781 13.09,2.539 13.09,15.379 0,6.125 -2.07,20.48 -18.98,33.273 -18.93,14.109 -37.89,14.902 -48.15,15.137 l -13.57,-34.336 c -2.31,-5.645 -4.06,-11.289 -4.06,-17.434 0,-9.988 9.43,-11.504 13.8,-12.019 v -5.117 h -54.57 v 5.117 c 12.05,3.066 16.16,10.508 25.12,32.773 l 41.25,105.547 c 1.52,3.848 3.83,11.777 3.83,14.082 0,1.016 0,6.895 -6.93,8.184 v 5.117 h 64.82 v -5.117 c -2.05,-0.508 -6.95,-1.543 -6.95,-8.45 0,-2.566 3.61,-15.105 4.63,-17.664 l 39.19,-109.375 c 6.65,-18.195 8.19,-22.558 18.72,-25.097 v -5.117 h -71.24"
           style="fill:#ef2e31;fill-opacity:1;fill-rule:nonzero;stroke:none"
           id="path833" />
        <path
           d="m 1196.47,322.305 c 0,-3.242 -2.55,-5.938 -5.78,-6.133 -10.95,-0.684 -13.2,-2.57 -14.47,-22.637 l -3.85,-71.66 c -0.76,-15.312 -0.17,-23.477 5.22,-31.172 8.12,-11.125 23.04,-12.336 29.1,-12.336 0.98,0 1.97,0.071 3.01,0.129 -3.54,2.129 -6.88,4.883 -9.57,8.574 -6.68,9.473 -7.19,19.493 -6.41,35.098 l 3.85,71.699 c 1.29,20.254 3.85,27.403 20.23,28.438 v 5.117 h -21.33 z m 110.98,0 v 5.117 h -21.35 v -5.117 c 0,-3.028 -2.2,-5.625 -5.23,-6.094 -5.43,-0.82 -8.05,-1.465 -9.16,-5.613 1.27,-4.192 1.82,-9.66 2.19,-16.731 l 3.32,-65.051 c 0.97,-15.378 0.06,-26.336 -5.14,-37.324 -2.56,-9.558 -6.93,-17.429 -13.4,-23.894 -6.58,-6.551 -14.28,-11.153 -22.24,-14.356 13.51,1.211 32.05,5.371 45.41,18.711 9.72,9.719 15.35,23.809 14.08,48.418 l -3.34,73.496 c -0.76,19.238 -0.28,26.145 14.86,28.438"
           style="fill:#ef2e31;fill-opacity:1;fill-rule:nonzero;stroke:none"
           id="path835" />
        <path
           d="m 1725.54,248.535 c 38.16,6.68 73.77,22.559 73.77,47.395 0,14.851 -11.78,19.988 -31.25,19.988 -2.05,0 -14.1,0 -22.54,-2.578 -6.68,-2.051 -7.7,-6.66 -11.04,-22.285 z m -12.29,-57.617 c -1.79,-8.215 -2.83,-16.387 -2.83,-19.473 0,-6.152 2.32,-10.996 15.9,-12.539 l -0.53,-2.304 h -65.06 l 0.53,2.304 c 18.16,3.594 19.71,10.996 24.8,34.824 l 21.04,99.122 c 2.56,12.285 2.81,18.203 2.81,19.461 0,6.671 -2.58,10.5 -13.32,12.55 l 0.51,2.559 h 68.12 c 32.52,0 45.36,0 53.54,-4.094 7.71,-3.57 11.27,-12.801 11.27,-21.238 0,-42.031 -57.87,-56.887 -106.8,-64.805 l -9.98,-46.367"
           style="fill:#263d96;fill-opacity:1;fill-rule:nonzero;stroke:none"
           id="path837" />
        <path
           d="m 1892.08,332.559 -18.14,-85.039 c 7.67,9.968 13.3,17.148 21.99,24.082 7.69,6.132 21.79,15.625 36.64,15.625 17.93,0 28.42,-12.305 28.42,-25.118 0,-5.129 -2.56,-16.132 -4.11,-24.062 l -6.89,-33.555 c -0.78,-3.086 -3.59,-15.879 -3.59,-20 0.25,-10.488 8.96,-14.062 15.37,-14.062 5.39,0 8.73,1.797 12.28,3.574 l 1.29,-1.777 -27.65,-18.965 c -6.43,0.254 -12.82,0.761 -19.48,6.426 -7.95,6.64 -8.94,14.843 -8.94,19.179 0,6.66 1.27,12.051 4.08,25.625 l 7.68,35.352 c 2.05,10.234 2.3,12.031 2.3,15.371 0,13.301 -12.03,13.562 -13.3,13.562 -12.83,0 -29.45,-9.226 -41.76,-30.73 -7.42,-13.059 -14.63,-38.692 -17.19,-50.723 l -6.36,-30.722 c -4.63,0.507 -6.17,0.507 -10.53,0.507 -7.17,0 -12.54,-0.254 -16.13,-0.507 l 29.47,138.543 c 1.03,4.367 2.01,10.246 2.01,15.128 0,13.575 -8.46,14.59 -16.6,14.317 v 2.344 l 49.14,5.625"
           style="fill:#263d96;fill-opacity:1;fill-rule:nonzero;stroke:none"
           id="path839" />
        <path
           d="m 2019.76,185.781 c 0,-11.504 7.96,-18.691 18.98,-18.691 13.57,0 23.81,8.457 28.93,14.355 12.79,14.59 17.16,37.395 18.96,47.625 -19.47,-3.562 -66.87,-12.027 -66.87,-43.289 z m 88.9,18.965 c -2.3,-11.25 -3.08,-14.59 -3.08,-20.5 0,-8.953 5.64,-12.019 10.25,-12.019 4.1,0 7.19,1.511 12.29,4.609 l 1.28,-1.543 -27.93,-22.031 c -14.84,4.101 -20.48,11.258 -22.26,25.34 -22.31,-24.059 -42.79,-25.34 -50.45,-25.34 -14.1,0 -36.64,8.718 -36.64,30.468 0,19.219 13.3,32.032 43.53,43.536 24.09,9.25 43.81,11.297 52.52,12.324 0.77,3.562 1.8,8.437 1.8,13.828 0,13.047 -9.98,21.738 -25.62,21.738 -9.75,0 -23.3,-2.773 -35.86,-10.996 -9.75,-6.152 -12.29,-11.262 -15.36,-16.902 h -1.54 l 9.98,39.207 c 2.31,-2.07 4.63,-4.121 10,-4.121 2.8,0 13.07,1.551 20.74,2.832 7.43,1.035 14.32,2.051 24.09,2.051 6.64,0 20.21,-1.27 28.41,-7.176 8.95,-6.926 12.29,-18.703 12.29,-26.379 0,-2.57 -0.76,-12.57 -2.83,-22.551 l -5.61,-26.375"
           style="fill:#263d96;fill-opacity:1;fill-rule:nonzero;stroke:none"
           id="path841" />
        <path
           d="m 2242.61,260.828 c -4.85,3.332 -9.2,6.418 -15.88,6.418 -17.68,0 -26.64,-16.914 -29.2,-23.848 -4.36,-11.523 -9.71,-30.195 -12.79,-45.07 l -8.69,-41.726 c -3.34,0.253 -7.45,0.507 -11.82,0.507 -2.31,0 -12.56,-0.507 -14.86,-0.507 l 16.15,76.054 c 3.57,16.66 3.57,19.981 3.57,23.594 0,22.773 -11.5,22.773 -16.38,22.773 l 0.27,2.305 35.6,4.102 c 6.63,-10.274 6.63,-19.219 6.14,-29.18 6.15,8.934 23.04,33.262 55.84,30.723 l -7.95,-26.145"
           style="fill:#263d96;fill-opacity:1;fill-rule:nonzero;stroke:none"
           id="path843" />
        <path
           d="m 2301.42,285.43 c 5.88,-8.731 8.45,-14.336 8.45,-26.387 0,-2.539 0,-4.59 -0.5,-11.27 12.81,17.168 33.8,39.454 57.36,39.454 6.4,0 18.44,-2.305 23.83,-13.332 2.83,-6.141 2.83,-12.547 2.3,-26.122 6.9,9.715 27.66,39.454 54.81,39.454 16.13,0 26.91,-8.711 26.91,-27.168 0,-2.305 0,-5.879 -3.59,-23.028 l -7.19,-33.301 c -2.03,-9.238 -3.3,-16.132 -3.3,-19.484 0,-9.969 9.72,-13.301 14.59,-13.301 5.12,0 9.45,2.297 12.28,3.84 l 1.31,-1.797 -26.66,-19.726 c -5.62,0.254 -10.76,0.515 -16.64,4.101 -9.49,5.879 -11.8,15.36 -11.8,21.239 0,7.707 1.27,13.605 2.84,21.261 l 8.45,38.7 c 2.54,12.023 2.8,13.312 2.8,17.16 0,12.793 -10.51,12.793 -11.51,12.793 -13.06,0 -28.2,-11.028 -38.42,-28.399 -10,-16.926 -14.88,-39.746 -17.69,-52.519 l -6.39,-30.996 c -5.66,0.507 -6.93,0.507 -13.06,0.507 -6.16,0 -7.95,0 -13.56,-0.507 l 16.11,75.273 c 0.28,1.816 2.82,13.848 2.82,20 0,3.34 0,15.371 -13.83,15.371 -17.66,0 -31.52,-16.144 -39.96,-32.793 -7.19,-13.574 -14.59,-44.043 -15.88,-50.207 l -5.88,-27.644 c -5.37,0.507 -6.43,0.507 -12.05,0.507 -7.4,0 -8.95,0 -14.34,-0.507 l 13.07,62.238 c 4.84,23.035 5.37,27.898 5.37,35.086 0,25.097 -10.25,25.34 -16.91,25.097 l -0.76,2.305 36.62,4.102"
           style="fill:#263d96;fill-opacity:1;fill-rule:nonzero;stroke:none"
           id="path845" />
        <path
           d="m 2533.33,185.781 c 0,-11.504 7.95,-18.691 18.95,-18.691 13.57,0 23.8,8.457 28.94,14.355 12.81,14.59 17.17,37.395 18.97,47.625 -19.48,-3.562 -66.86,-12.027 -66.86,-43.289 z m 88.87,18.965 c -2.29,-11.25 -3.05,-14.59 -3.05,-20.5 0,-8.953 5.61,-12.019 10.23,-12.019 4.11,0 7.19,1.511 12.29,4.609 l 1.29,-1.543 -27.91,-22.031 c -14.86,4.101 -20.51,11.258 -22.31,25.34 -22.26,-24.059 -42.77,-25.34 -50.46,-25.34 -14.09,0 -36.61,8.718 -36.61,30.468 0,19.219 13.32,32.032 43.54,43.536 24.1,9.25 43.79,11.297 52.52,12.324 0.76,3.562 1.8,8.437 1.8,13.828 0,13.047 -10.02,21.738 -25.65,21.738 -9.71,0 -23.28,-2.773 -35.82,-10.996 -9.75,-6.152 -12.32,-11.262 -15.41,-16.902 h -1.5 l 9.98,39.207 c 2.3,-2.07 4.61,-4.121 9.98,-4.121 2.83,0 13.04,1.551 20.74,2.832 7.46,1.035 14.36,2.051 24.06,2.051 6.68,0 20.26,-1.27 28.48,-7.176 8.92,-6.926 12.26,-18.703 12.26,-26.379 0,-2.57 -0.76,-12.57 -2.81,-22.551 l -5.64,-26.375"
           style="fill:#263d96;fill-opacity:1;fill-rule:nonzero;stroke:none"
           id="path847" />
        <path
           d="m 1084.85,152.48 c -0.77,1.036 -2.06,2.063 -3.6,2.813 -1.53,0.781 -3.58,1.309 -6.39,1.309 H 949.086 v 5.117 c 13.828,2.801 15.379,7.929 15.379,28.437 v 103.711 c 0,20.52 -1.551,25.625 -15.379,28.438 v 5.117 h 116.804 c 9.22,0 11.02,1.543 13.83,3.848 l 12.31,-57.375 -3.61,-1.512 c -5.63,11.25 -20.75,39.676 -62.24,39.676 -20.73,0 -23.56,-8.446 -23.56,-22.032 v -15.886 h 20.77 c 19.44,0 25.09,4.101 25.61,19.472 l 3.57,0.528 10.77,-63.282 -3.6,-0.761 c -7.67,15.879 -14.34,28.679 -43.28,28.679 h -13.84 v -59.695 c 0,-16.379 0.77,-27.383 26.9,-27.383 27.42,0 42.78,12.285 50.96,19.727 14.62,13.828 19.73,24.062 22.82,29.715 l 3.57,-1.805 -22.02,-66.856"
           style="fill:#263d96;fill-opacity:1;fill-rule:nonzero;stroke:none"
           id="path849" />
        <path
           d="m 1116.53,327.422 h 73.77 v -5.117 c -16.4,-1.035 -18.96,-8.184 -20.25,-28.438 l -3.83,-71.699 c -0.78,-15.605 -0.27,-25.625 6.41,-35.098 8.96,-12.285 24.59,-14.843 34.06,-14.843 13.83,0 30.74,5.39 37.15,17.656 5.88,11.523 6.89,22.793 5.88,38.933 l -3.34,65.051 c -1.02,20.254 -3.34,27.656 -20.75,28.438 v 5.117 h 54.3 v -5.117 c -15.1,-2.293 -15.6,-9.2 -14.84,-28.438 l 3.34,-73.496 c 1.27,-24.609 -4.38,-38.699 -14.08,-48.418 -17.43,-17.41 -43.83,-19.219 -56.12,-19.219 -7.42,0 -37.4,1.043 -52.75,13.594 -15.38,12.539 -18.95,26.121 -17.93,48.66 l 3.83,78.879 c 1.03,18.965 0.51,26.406 -14.85,28.438 v 5.117"
           style="fill:#263d96;fill-opacity:1;fill-rule:nonzero;stroke:none"
           id="path851" />
        <path
           d="m 121.055,341.426 c 0,0 2.367,1.172 6.047,1.316 0,0 7.64,0.457 8.539,1.028 0,0 -0.743,-5.153 1.468,-7.497 0,0 2.207,-2.503 8.387,-0.296 0,0 2.063,0.589 3.383,-1.622 l 7.66,-4.414 c 0,0 0.734,-11.046 -1.184,-11.933 l -7.945,-6.172 c 0,0 -1.027,-2.219 -5.887,-1.172 l -1.773,-0.156 -9.863,-2.793 c 0,0 2.218,2.207 -0.297,1.172 l -5.43,-2.793 c 0,0 -7.808,-5.449 -9.863,-2.793 0,0 -1.481,1.328 -2.359,1.465 0,0 -6.34,0.879 -4.418,5.437 l 5.156,9.719 c 0,0 5.297,4.277 8.676,5.301 0,0 2.656,0.148 1.476,3.683 l -0.293,1.328 c 0,0 -0.738,1.758 -1.762,2.207 0,0 -2.941,1.172 -0.597,3.387 l 0.879,1.184 v 4.414"
           style="fill:#263d96;fill-opacity:1;fill-rule:nonzero;stroke:none"
           id="path853" />
        <path
           d="m 121.055,341.426 c 0,0 2.367,1.172 6.047,1.316 0,0 7.64,0.457 8.539,1.028 0,0 -0.743,-5.153 1.468,-7.497 0,0 2.207,-2.503 8.387,-0.296 0,0 2.063,0.589 3.383,-1.622 l 7.66,-4.414 c 0,0 0.734,-11.046 -1.184,-11.933 l -7.945,-6.172 c 0,0 -1.027,-2.219 -5.887,-1.172 l -1.773,-0.156 -9.863,-2.793 c 0,0 2.218,2.207 -0.297,1.172 l -5.43,-2.793 c 0,0 -7.808,-5.449 -9.863,-2.793 0,0 -1.481,1.328 -2.359,1.465 0,0 -6.34,0.879 -4.418,5.437 l 5.156,9.719 c 0,0 5.297,4.277 8.676,5.301 0,0 2.656,0.148 1.476,3.683 l -0.293,1.328 c 0,0 -0.738,1.758 -1.762,2.207 0,0 -2.941,1.172 -0.597,3.387 l 0.879,1.184 z"
           style="fill:none;stroke:#263d96;stroke-width:0.67299998;stroke-linecap:butt;stroke-linejoin:miter;stroke-miterlimit:4;stroke-dasharray:none;stroke-opacity:1"
           id="path855" />
        <path
           d="m 137.258,346.426 c 0,0 3.972,2.5 5.301,-1.324 l -0.297,-3.676 c 0,0 5.297,1.172 6.332,0.726 0,0 2.496,0 3.972,-1.757 0,0 2.649,-2.36 3.528,-2.36 0,0 2.812,-1.023 4.273,-2.644 0,0 3.395,1.761 4.113,6.617 l -0.718,8.109 c 0,0 0.871,4.703 -2.219,3.676 0,0 -4.414,-1.191 -4.563,1.18 0,0 0,3.816 -2.648,3.078 l -1.766,-2.203 c 0,0 -1.035,-1.473 -2.953,-1.028 0,0 -2.793,0.293 -4.414,-1.621 l -3.09,-3.082 c 0,0 -2.652,-2.074 -3.675,-2.074 0,0 -1.176,-0.879 -1.176,-1.617"
           style="fill:#263d96;fill-opacity:1;fill-rule:nonzero;stroke:none"
           id="path857" />
        <path
           d="m 137.258,346.426 c 0,0 3.972,2.5 5.301,-1.324 l -0.297,-3.676 c 0,0 5.297,1.172 6.332,0.726 0,0 2.496,0 3.972,-1.757 0,0 2.649,-2.36 3.528,-2.36 0,0 2.812,-1.023 4.273,-2.644 0,0 3.395,1.761 4.113,6.617 l -0.718,8.109 c 0,0 0.871,4.703 -2.219,3.676 0,0 -4.414,-1.191 -4.563,1.18 0,0 0,3.816 -2.648,3.078 l -1.766,-2.203 c 0,0 -1.035,-1.473 -2.953,-1.028 0,0 -2.793,0.293 -4.414,-1.621 l -3.09,-3.082 c 0,0 -2.652,-2.074 -3.675,-2.074 0,0 -1.176,-0.879 -1.176,-1.617 z"
           style="fill:none;stroke:#263d96;stroke-width:0.67299998;stroke-linecap:butt;stroke-linejoin:miter;stroke-miterlimit:4;stroke-dasharray:none;stroke-opacity:1"
           id="path859" />
        <path
           d="m 229.555,295.059 7.8,5.586 c 0,0 5.438,11.035 2.063,14.57 0,0 -2.492,7.375 -13.988,5.301 l -0.446,1.918 c 0,0 0.305,3.836 -2.789,5.3 0,0 -4.566,4.414 -4.707,6.465 0,0 -1.332,4.719 -3.687,5.156 0,0 -3.235,1.93 -3.235,4.715 0,0 -1.179,3.68 -6.187,7.356 l -0.883,4.281 -6.176,3.965 c 0,0 -2.797,1.469 -0.738,3.391 l 11.047,19.281 c 0,0 0,0.738 -2.359,0.738 l -16.942,-1.184 c 0,0 -0.137,0.739 1.043,1.477 l 3.817,1.922 -1.317,2.344 c 0,0 13.399,5.449 12.367,10.746 0,0 -1.324,1.926 -2.211,1.773 0,0 -1.172,-3.539 -1.914,-3.832 0,0 -2.054,-1.172 -6.633,-0.433 0,0 -6.023,0.726 -7.949,-2.805 l -3.672,-5.156 c 0,0 -1.175,-1.317 -4.261,-1.774 l -1.188,-0.863 c 0,0 -1.023,-7.371 -2.215,-10.313 0,0 -3.082,-0.441 -3.222,-1.914 0,0 -1.192,-4.121 4.414,-3.972 0,0 -10.461,-8.828 -7.797,-16.203 0,0 1.609,-1.016 3.383,4.289 0,0 3.523,2.644 5.742,-1.188 0,0 0.726,-1.621 -1.188,-2.949 0,0 -7.203,-4.262 -4.707,-7.348 0,0 1.77,-3.402 7.516,0 0,0 4.559,2.641 6.316,-1.336 0,0 1.778,-1.621 -0.437,-6.183 l 2.215,-3.239 c 0,0 2.199,-2.363 -0.16,-3.828 l -1.032,-1.023 c 0,0 4.414,-7.082 -2.203,-6.184 0,0 -15.004,0.442 -16.48,-4.277 0,0 0.734,-2.793 5.297,-1.035 0,0 0.293,-5.285 -2.071,-6.621 0,0 -10.152,-4.114 -11.035,-6.465 v -0.606 l 5.141,-2.207 c 0,0 2.812,-1.894 5.312,-0.285 0,0 2.207,0.891 4.274,-0.437 l 6.617,-3.387 4.859,2.215 0.582,-0.449 c 0,0 -1.027,-4.266 -6.32,-4.559 l -6.027,-0.305 c 0,0 -5.153,-0.429 -5.895,-5.156 l -7.367,-1.621 -4.567,-4.414 c 0,0 -1.328,-1.758 -2.937,-1.465 0,0 -3.242,0.586 -4.563,-1.328 0,0 4.563,-2.941 10.75,0.449 0,0 2.938,1.465 5.735,0.145 0,0 5.89,-4.559 8.394,-1.473 l 0.879,0.879 c 0,0 0.883,2.07 0.582,2.793 0,0 -0.285,2.656 6.043,3.398 l 6.477,0.137 c 0,0 2.656,0 3.39,-1.902 0,0 2.942,-5.891 5.301,-1.039 0,0 0.047,2.843 5.34,2.453 l 13.75,0.39 c 0,0 -0.199,-1.562 2.559,-1.367 0,0 15.496,-3.137 19.621,3.535 0,0 3.133,3.328 -3.934,4.903 l -3.187,0.254"
           style="fill:#263d96;fill-opacity:1;fill-rule:nonzero;stroke:none"
           id="path861" />
        <path
           d="m 229.555,295.059 7.8,5.586 c 0,0 5.438,11.035 2.063,14.57 0,0 -2.492,7.375 -13.988,5.301 l -0.446,1.918 c 0,0 0.305,3.836 -2.789,5.3 0,0 -4.566,4.414 -4.707,6.465 0,0 -1.332,4.719 -3.687,5.156 0,0 -3.235,1.93 -3.235,4.715 0,0 -1.179,3.68 -6.187,7.356 l -0.883,4.281 -6.176,3.965 c 0,0 -2.797,1.469 -0.738,3.391 l 11.047,19.281 c 0,0 0,0.738 -2.359,0.738 l -16.942,-1.184 c 0,0 -0.137,0.739 1.043,1.477 l 3.817,1.922 -1.317,2.344 c 0,0 13.399,5.449 12.367,10.746 0,0 -1.324,1.926 -2.211,1.773 0,0 -1.172,-3.539 -1.914,-3.832 0,0 -2.054,-1.172 -6.633,-0.433 0,0 -6.023,0.726 -7.949,-2.805 l -3.672,-5.156 c 0,0 -1.175,-1.317 -4.261,-1.774 l -1.188,-0.863 c 0,0 -1.023,-7.371 -2.215,-10.313 0,0 -3.082,-0.441 -3.222,-1.914 0,0 -1.192,-4.121 4.414,-3.972 0,0 -10.461,-8.828 -7.797,-16.203 0,0 1.609,-1.016 3.383,4.289 0,0 3.523,2.644 5.742,-1.188 0,0 0.726,-1.621 -1.188,-2.949 0,0 -7.203,-4.262 -4.707,-7.348 0,0 1.77,-3.402 7.516,0 0,0 4.559,2.641 6.316,-1.336 0,0 1.778,-1.621 -0.437,-6.183 l 2.215,-3.239 c 0,0 2.199,-2.363 -0.16,-3.828 l -1.032,-1.023 c 0,0 4.414,-7.082 -2.203,-6.184 0,0 -15.004,0.442 -16.48,-4.277 0,0 0.734,-2.793 5.297,-1.035 0,0 0.293,-5.285 -2.071,-6.621 0,0 -10.152,-4.114 -11.035,-6.465 v -0.606 l 5.141,-2.207 c 0,0 2.812,-1.894 5.312,-0.285 0,0 2.207,0.891 4.274,-0.437 l 6.617,-3.387 4.859,2.215 0.582,-0.449 c 0,0 -1.027,-4.266 -6.32,-4.559 l -6.027,-0.305 c 0,0 -5.153,-0.429 -5.895,-5.156 l -7.367,-1.621 -4.567,-4.414 c 0,0 -1.328,-1.758 -2.937,-1.465 0,0 -3.242,0.586 -4.563,-1.328 0,0 4.563,-2.941 10.75,0.449 0,0 2.938,1.465 5.735,0.145 0,0 5.89,-4.559 8.394,-1.473 l 0.879,0.879 c 0,0 0.883,2.07 0.582,2.793 0,0 -0.285,2.656 6.043,3.398 l 6.477,0.137 c 0,0 2.656,0 3.39,-1.902 0,0 2.942,-5.891 5.301,-1.039 0,0 0.047,2.843 5.34,2.453 l 13.75,0.39 c 0,0 -0.199,-1.562 2.559,-1.367 0,0 15.496,-3.137 19.621,3.535 0,0 3.133,3.328 -3.934,4.903 z"
           style="fill:none;stroke:#263d96;stroke-width:0.67299998;stroke-linecap:butt;stroke-linejoin:miter;stroke-miterlimit:4;stroke-dasharray:none;stroke-opacity:1"
           id="path863" />
        <path
           d="m 249.895,290.801 c 0,0 -3.18,-1.785 -4.18,-3.781 l -4.176,-8.368 c 0,0 -1.984,-4.961 -10.742,-4.172 l -8.164,-2.988 -1.988,-4.578 -3.383,2.188 -5.172,-0.196 c 0,0 -6.184,-1.797 -9.957,0.606 0,0 -6.758,4.765 -8.156,0.996 0,0 0.589,-3.184 1.785,-4.192 0,0 4.785,-4.168 4.785,-5.769 0,0 -15.93,-0.801 -19.512,0 l -1.797,0.195 -19.496,-2.578 -1.191,-10.351 c 0,0 1.785,-0.989 5.371,-1.192 0,0 6.359,0 8.348,-2.805 l 7.371,-8.738 c 0,0 11.14,-0.398 24.48,-13.34 0,0 0.395,-2.59 -1.594,-5.769 L 198.945,210 c 0,0 4.977,-4.59 1.602,-10.547 l -6.184,-11.941 11.543,-4.973 c 0,0 11.149,-5.391 16.727,-5.586 l 51.945,-1.191 c 0,0 0.91,6.816 2.371,7.851 0,0 2.367,2.207 9.571,1.621 l 12.371,-0.742 7.945,-1.476 4.719,0.89 c 0,0 8.687,0.305 16.925,7.078 0,0 -1.472,2.051 -1.332,3.086 v 4.414 l -5.445,1.75 c 0,0 -3.226,0.157 -2.933,5.176 l -1.473,2.356 c 0,0 -1.336,1.461 -0.598,3.23 l 2.211,5.488 -6.328,13.047 c 0,0 -6.184,0.907 -6.781,6.192 0,0 -0.446,3.965 3.984,6.328 l 2.063,0.742 c 0,0 7.211,4.57 9.57,23.105 l -6.777,-0.437 c 0,0 -7.95,-2.356 -13.543,1.18 l -3.832,2.793 c 0,0 -5.735,6.035 -11.469,5.593 0,0 -7.074,0.149 -9.418,2.063 l -10.899,5.156 -9.714,4.863 -5.871,3.692"
           style="fill:#263d96;fill-opacity:1;fill-rule:nonzero;stroke:none"
           id="path865" />
        <path
           d="m 249.895,290.801 c 0,0 -3.18,-1.785 -4.18,-3.781 l -4.176,-8.368 c 0,0 -1.984,-4.961 -10.742,-4.172 l -8.164,-2.988 -1.988,-4.578 -3.383,2.188 -5.172,-0.196 c 0,0 -6.184,-1.797 -9.957,0.606 0,0 -6.758,4.765 -8.156,0.996 0,0 0.589,-3.184 1.785,-4.192 0,0 4.785,-4.168 4.785,-5.769 0,0 -15.93,-0.801 -19.512,0 l -1.797,0.195 -19.496,-2.578 -1.191,-10.351 c 0,0 1.785,-0.989 5.371,-1.192 0,0 6.359,0 8.348,-2.805 l 7.371,-8.738 c 0,0 11.14,-0.398 24.48,-13.34 0,0 0.395,-2.59 -1.594,-5.769 L 198.945,210 c 0,0 4.977,-4.59 1.602,-10.547 l -6.184,-11.941 11.543,-4.973 c 0,0 11.149,-5.391 16.727,-5.586 l 51.945,-1.191 c 0,0 0.91,6.816 2.371,7.851 0,0 2.367,2.207 9.571,1.621 l 12.371,-0.742 7.945,-1.476 4.719,0.89 c 0,0 8.687,0.305 16.925,7.078 0,0 -1.472,2.051 -1.332,3.086 v 4.414 l -5.445,1.75 c 0,0 -3.226,0.157 -2.933,5.176 l -1.473,2.356 c 0,0 -1.336,1.461 -0.598,3.23 l 2.211,5.488 -6.328,13.047 c 0,0 -6.184,0.907 -6.781,6.192 0,0 -0.446,3.965 3.984,6.328 l 2.063,0.742 c 0,0 7.211,4.57 9.57,23.105 l -6.777,-0.437 c 0,0 -7.95,-2.356 -13.543,1.18 l -3.832,2.793 c 0,0 -5.735,6.035 -11.469,5.593 0,0 -7.074,0.149 -9.418,2.063 l -10.899,5.156 -9.714,4.863 z"
           style="fill:none;stroke:#263d96;stroke-width:0.67299998;stroke-linecap:butt;stroke-linejoin:miter;stroke-miterlimit:4;stroke-dasharray:none;stroke-opacity:1"
           id="path867" />
        <path
           d="m 319.215,237.938 c 0,0 1.898,-1.778 2.203,-3.086 l 1.617,-5.75 c 0,0 2.199,-1.172 3.82,1.336 0,0 4.868,6.164 8.985,6.007 0,0 4.262,-0.879 5.445,-1.593 0,0 2.656,6.164 10.75,4.836 l 3.68,-0.579 0.734,1.907 c 0,0 -11.195,-0.723 -14.426,5.156 l -0.89,3.242 -2.789,0.879 c 0,0 -2.949,-4.121 -8.399,-4.57 0,0 -4.117,-3.371 -7.793,-3.672 l -2.937,-4.113"
           style="fill:#263d96;fill-opacity:1;fill-rule:nonzero;stroke:none"
           id="path869" />
        <path
           d="m 319.215,237.938 c 0,0 1.898,-1.778 2.203,-3.086 l 1.617,-5.75 c 0,0 2.199,-1.172 3.82,1.336 0,0 4.868,6.164 8.985,6.007 0,0 4.262,-0.879 5.445,-1.593 0,0 2.656,6.164 10.75,4.836 l 3.68,-0.579 0.734,1.907 c 0,0 -11.195,-0.723 -14.426,5.156 l -0.89,3.242 -2.789,0.879 c 0,0 -2.949,-4.121 -8.399,-4.57 0,0 -4.117,-3.371 -7.793,-3.672 z"
           style="fill:none;stroke:#263d96;stroke-width:0.67299998;stroke-linecap:butt;stroke-linejoin:miter;stroke-miterlimit:4;stroke-dasharray:none;stroke-opacity:1"
           id="path871" />
        <path
           d="m 294.184,280.77 c 0,0 -5.75,1.183 -7.52,0.585 0,0 -3.965,-0.144 -6.902,2.512 l -3.551,1.758 c 0,0 -4.414,1.484 -5.586,1.484 0,0 -12.074,6.036 -13.547,7.5 l 1.629,1.036 c 0,0 1.469,-2.657 5.438,-2.942 l 5.308,-1.18 2.942,-0.593 1.472,-0.149 c 0,0 1.914,0 2.219,0.742 0,0 6.465,3.965 12.648,2.493 l 0.442,-1.465 c 0,0 0.734,-2.793 3.676,-4.719 0,0 -0.442,-5.137 1.332,-7.062"
           style="fill:#263d96;fill-opacity:1;fill-rule:nonzero;stroke:none"
           id="path873" />
        <path
           d="m 294.184,280.77 c 0,0 -5.75,1.183 -7.52,0.585 0,0 -3.965,-0.144 -6.902,2.512 l -3.551,1.758 c 0,0 -4.414,1.484 -5.586,1.484 0,0 -12.074,6.036 -13.547,7.5 l 1.629,1.036 c 0,0 1.469,-2.657 5.438,-2.942 l 5.308,-1.18 2.942,-0.593 1.472,-0.149 c 0,0 1.914,0 2.219,0.742 0,0 6.465,3.965 12.648,2.493 l 0.442,-1.465 c 0,0 0.734,-2.793 3.676,-4.719 0,0 -0.442,-5.137 1.332,-7.062 z"
           style="fill:none;stroke:#263d96;stroke-width:0.67299998;stroke-linecap:butt;stroke-linejoin:miter;stroke-miterlimit:4;stroke-dasharray:none;stroke-opacity:1"
           id="path875" />
        <path
           d="m 102.996,169.375 4.719,-0.586 c 0,0 4.125,-5.496 12.156,-6.094 0,0 9.824,-0.371 13.164,0 0,0 0.582,-2.539 -2.551,-3.711 0,0 -4.718,-2.949 -1.379,-9.218 0,0 0.211,-1.582 -0.785,-2.364 0,0 -2.152,-2.558 0.2,-5.898 0,0 -5.098,-1.57 -3.332,-5.274 l 1.761,-3.957 c 0,0 -2.554,-1.55 -1.367,-5.476 0,0 3.332,-8.242 4.305,-15.703 l -3.524,-1.59 c 0,0 -5.496,3.367 -11.199,1.394 0,0 -3.527,-1.582 -4.305,0.977 l -1.777,15.906 c 0,0 -9.2187,-3.941 -10.0039,9.407 l 6.4729,9.035 c 0,0 4.316,2.957 1.183,7.058 l -2.156,3.731 -0.203,1.574 -1.379,10.789"
           style="fill:#263d96;fill-opacity:1;fill-rule:nonzero;stroke:none"
           id="path877" />
        <path
           d="m 102.996,169.375 4.719,-0.586 c 0,0 4.125,-5.496 12.156,-6.094 0,0 9.824,-0.371 13.164,0 0,0 0.582,-2.539 -2.551,-3.711 0,0 -4.718,-2.949 -1.379,-9.218 0,0 0.211,-1.582 -0.785,-2.364 0,0 -2.152,-2.558 0.2,-5.898 0,0 -5.098,-1.57 -3.332,-5.274 l 1.761,-3.957 c 0,0 -2.554,-1.55 -1.367,-5.476 0,0 3.332,-8.242 4.305,-15.703 l -3.524,-1.59 c 0,0 -5.496,3.367 -11.199,1.394 0,0 -3.527,-1.582 -4.305,0.977 l -1.777,15.906 c 0,0 -9.2187,-3.941 -10.0039,9.407 l 6.4729,9.035 c 0,0 4.316,2.957 1.183,7.058 l -2.156,3.731 -0.203,1.574 z"
           style="fill:none;stroke:#263d96;stroke-width:0.67299998;stroke-linecap:butt;stroke-linejoin:miter;stroke-miterlimit:4;stroke-dasharray:none;stroke-opacity:1"
           id="path879" />
        <path
           d="m 273.574,168.406 c 0,0 -65.168,-3.543 -76.351,10.578 0,0 -13.942,6.289 -23.957,7.871 0,0 -5.676,-0.214 -8.047,-1.386 0,0 -16.875,-1.172 -51.024,10.222 l -2.754,-4.128 c 0,0 -1.171,-2.735 -7.664,-1.583 0,0 -8.6286,0.196 -6.8512,-4.707 0,0 2.5508,-6.464 5.4922,-8.437 l 6.277,-1.172 c 0,0 5.895,-1.582 7.063,-3.144 0,0 5.89,-4.512 11,-2.754 0,0 10.012,1.765 14.328,-5.086 0,0 3.918,-5.5 -4.719,-11.575 0,0 3.531,-5.117 -0.195,-9.433 0,0 3.148,-3.926 0.98,-5.703 l -2.937,-3.34 1.765,-3.535 c 0,0 2.356,-2.344 -1.96,-3.906 l 3.535,-17.872 3.144,-2.351 4.899,-4.516 c 0,0 7.656,-8.2302 13.726,-6.8631 0,0 2.754,1.7774 3.34,2.9297 0,0 2.555,1.9614 5.309,1.9614 h 21.011 1.559 l 27.477,11.601 10.804,7.844 c 0,0 4.512,2.558 0,5.105 l -3.336,2.942 c 0,0 -1.383,2.344 0.774,5.898 l 11.187,15.313 c 0,0 0.992,2.929 4.524,2.148 l 2.75,-0.996 1.363,-0.176 c 0,0 20.605,5.684 23.754,9.61 0,0 4.512,3.339 3.734,8.64"
           style="fill:#263d96;fill-opacity:1;fill-rule:nonzero;stroke:none"
           id="path881" />
        <path
           d="m 273.574,168.406 c 0,0 -65.168,-3.543 -76.351,10.578 0,0 -13.942,6.289 -23.957,7.871 0,0 -5.676,-0.214 -8.047,-1.386 0,0 -16.875,-1.172 -51.024,10.222 l -2.754,-4.128 c 0,0 -1.171,-2.735 -7.664,-1.583 0,0 -8.6286,0.196 -6.8512,-4.707 0,0 2.5508,-6.464 5.4922,-8.437 l 6.277,-1.172 c 0,0 5.895,-1.582 7.063,-3.144 0,0 5.89,-4.512 11,-2.754 0,0 10.012,1.765 14.328,-5.086 0,0 3.918,-5.5 -4.719,-11.575 0,0 3.531,-5.117 -0.195,-9.433 0,0 3.148,-3.926 0.98,-5.703 l -2.937,-3.34 1.765,-3.535 c 0,0 2.356,-2.344 -1.96,-3.906 l 3.535,-17.872 3.144,-2.351 4.899,-4.516 c 0,0 7.656,-8.2302 13.726,-6.8631 0,0 2.754,1.7774 3.34,2.9297 0,0 2.555,1.9614 5.309,1.9614 h 21.011 1.559 l 27.477,11.601 10.804,7.844 c 0,0 4.512,2.558 0,5.105 l -3.336,2.942 c 0,0 -1.383,2.344 0.774,5.898 l 11.187,15.313 c 0,0 0.992,2.929 4.524,2.148 l 2.75,-0.996 1.363,-0.176 c 0,0 20.605,5.684 23.754,9.61 0,0 4.512,3.339 3.734,8.64 z"
           style="fill:none;stroke:#263d96;stroke-width:0.67299998;stroke-linecap:butt;stroke-linejoin:miter;stroke-miterlimit:4;stroke-dasharray:none;stroke-opacity:1"
           id="path883" />
        <path
           d="m 236.863,465.199 c 0,0 11.696,-6.246 13.25,-9.359 l 4.098,-5.461 0.773,-1.352 -0.394,-1.937 -0.379,-0.981 c 0,0 2.723,-1.765 0.379,-1.953 0,0 -1.953,0.969 -1.36,-0.582 l 0.774,-2.336 -2.535,-0.781 2.535,-0.578 0.398,-1.57 c 0,0 -6.629,-0.977 -4.492,-5.645 l 0.789,-0.781 3.11,-2.914 c 0,0 4.089,-1.567 6.632,-0.399 0,0 2.336,0.981 1.563,-1.359 0,0 -5.07,-1.559 -9.555,-2.535 l 0.586,-1.36 c 0,0 3.899,-5.847 5.262,-6.628 l 1.355,0.781 c 0,0 1.965,1.554 1.77,-0.586 0,0 -4.106,-9.735 -1.383,-11.68 l 1.383,0.969 c 0,0 3.305,2.918 2.91,0.391 l -0.582,-2.926 c 0,0 1.176,-2.731 1.176,-4.282 0,0 -0.594,-4.488 3.887,-5.851 l 5.253,-0.391 c 0,0 0.782,-3.894 4.879,-2.133 l 2.715,0.786 c 0,0 3.715,1.16 4.883,5.254 l 1.363,5.253 c 0,0 0.574,2.93 2.535,2.727 0,0 1.946,2.539 0.575,4.285 l -0.977,1.75 c 0,0 0.016,1.367 1.953,0.399 l 3.699,-2.344 0.981,0.582 c 0,0 -1.176,3.312 -4.68,6.23 0,0 -2.144,2.344 -1.168,4.098 l -3.304,4.285 c 0,0 -5.665,3.496 -5.86,6.238 0,0 -1.933,2.918 -3.492,3.891 l -18.898,16.176 -7.399,7.398 c 0,0 -12.863,6.43 -15.008,7.211"
           style="fill:#263d96;fill-opacity:1;fill-rule:nonzero;stroke:none"
           id="path885" />
        <path
           d="m 236.863,465.199 c 0,0 11.696,-6.246 13.25,-9.359 l 4.098,-5.461 0.773,-1.352 -0.394,-1.937 -0.379,-0.981 c 0,0 2.723,-1.765 0.379,-1.953 0,0 -1.953,0.969 -1.36,-0.582 l 0.774,-2.336 -2.535,-0.781 2.535,-0.578 0.398,-1.57 c 0,0 -6.629,-0.977 -4.492,-5.645 l 0.789,-0.781 3.11,-2.914 c 0,0 4.089,-1.567 6.632,-0.399 0,0 2.336,0.981 1.563,-1.359 0,0 -5.07,-1.559 -9.555,-2.535 l 0.586,-1.36 c 0,0 3.899,-5.847 5.262,-6.628 l 1.355,0.781 c 0,0 1.965,1.554 1.77,-0.586 0,0 -4.106,-9.735 -1.383,-11.68 l 1.383,0.969 c 0,0 3.305,2.918 2.91,0.391 l -0.582,-2.926 c 0,0 1.176,-2.731 1.176,-4.282 0,0 -0.594,-4.488 3.887,-5.851 l 5.253,-0.391 c 0,0 0.782,-3.894 4.879,-2.133 l 2.715,0.786 c 0,0 3.715,1.16 4.883,5.254 l 1.363,5.253 c 0,0 0.574,2.93 2.535,2.727 0,0 1.946,2.539 0.575,4.285 l -0.977,1.75 c 0,0 0.016,1.367 1.953,0.399 l 3.699,-2.344 0.981,0.582 c 0,0 -1.176,3.312 -4.68,6.23 0,0 -2.144,2.344 -1.168,4.098 l -3.304,4.285 c 0,0 -5.665,3.496 -5.86,6.238 0,0 -1.933,2.918 -3.492,3.891 l -18.898,16.176 -7.399,7.398 c 0,0 -12.863,6.43 -15.008,7.211 z"
           style="fill:none;stroke:#263d96;stroke-width:0.67299998;stroke-linecap:butt;stroke-linejoin:miter;stroke-miterlimit:4;stroke-dasharray:none;stroke-opacity:1"
           id="path887" />
        <path
           d="m 237.836,465.199 c 0,0 43.824,-0.98 62.336,-8.379 0,0 19.879,-8.382 21.816,-10.523 v -1.172 c 0,0 2.93,-3.5 5.848,-5.844 0,0 -1.367,-0.769 0.383,-1.742 0,0 2.14,-1.953 2.14,-2.926 l -3.097,0.395 c 0,0 -0.196,-1.762 -12.477,2.918 l -6.617,3.699 -9.938,4.484 -22.406,8.954 -8.574,3.695 c 0,0 -21.816,6.246 -29.414,6.441"
           style="fill:#263d96;fill-opacity:1;fill-rule:nonzero;stroke:none"
           id="path889" />
        <path
           d="m 237.836,465.199 c 0,0 43.824,-0.98 62.336,-8.379 0,0 19.879,-8.382 21.816,-10.523 v -1.172 c 0,0 2.93,-3.5 5.848,-5.844 0,0 -1.367,-0.769 0.383,-1.742 0,0 2.14,-1.953 2.14,-2.926 l -3.097,0.395 c 0,0 -0.196,-1.762 -12.477,2.918 l -6.617,3.699 -9.938,4.484 -22.406,8.954 -8.574,3.695 c 0,0 -21.816,6.246 -29.414,6.441 z"
           style="fill:none;stroke:#263d96;stroke-width:0.67299998;stroke-linecap:butt;stroke-linejoin:miter;stroke-miterlimit:4;stroke-dasharray:none;stroke-opacity:1"
           id="path891" />
        <path
           d="m 238.418,464.996 c 0,0 21.234,-2.141 35.27,-12.258 l 22.789,-14.238 4.289,-3.301 1.16,-1.172 c 0,0 15.199,-3.699 18.894,-9.351 l -5.062,-2.723 v -0.785 l 2.926,-1.359 6.429,0.578 0.77,-4.274 c 0,0 -1.367,-1.562 0.781,-2.933 0,0 10.328,-8.375 12.082,-10.907 1.758,-2.527 2.527,-4.085 2.527,-4.085 l 2.528,-4.098 c 0,0 2.547,-3.508 3.316,-3.699 0,0 2.531,-2.336 3.313,-5.844 l 1.175,-3.121 -0.398,-1.164 c 0,0 -6.426,-0.184 -7.207,-1.551 l -1.551,-2.934 c 0,0 -0.785,-2.332 2.141,-4.285 0,0 4.277,-3.496 -0.59,-2.523 l -4.281,1.172 -1.168,-2.739 c 0,0 -3.11,0.387 -4.672,4.293 0,0 -3.902,2.532 -4.488,2.93 0,0 -3.305,1.551 -3.895,5.254 0,0 -3.312,3.879 -5.062,5.258 l -4.289,3.316 -4.282,3.504 c 0,0 -2.336,1.363 -2.336,5.836 0,0 -0.402,4.082 -2.925,3.887 0,0 -3.891,-2.711 -5.836,1.375 l -0.782,1.363 c 0,0 2.922,0.191 2.34,2.145 0,0 -1.765,5.648 -6.445,9.742 0,0 1.176,1.359 -1.555,4.675 l -4.476,4.672 c 0,0 -4.473,3.496 -4.668,4.871 0,0 -2.157,3.11 -5.848,5.645 l -12.66,10.922 c 0,0 -12.27,10.711 -14.606,11.48 l -13.648,6.426"
           style="fill:#263d96;fill-opacity:1;fill-rule:nonzero;stroke:none"
           id="path893" />
        <path
           d="m 238.418,464.996 c 0,0 21.234,-2.141 35.27,-12.258 l 22.789,-14.238 4.289,-3.301 1.16,-1.172 c 0,0 15.199,-3.699 18.894,-9.351 l -5.062,-2.723 v -0.785 l 2.926,-1.359 6.429,0.578 0.77,-4.274 c 0,0 -1.367,-1.562 0.781,-2.933 0,0 10.328,-8.375 12.082,-10.907 1.758,-2.527 2.527,-4.085 2.527,-4.085 l 2.528,-4.098 c 0,0 2.547,-3.508 3.316,-3.699 0,0 2.531,-2.336 3.313,-5.844 l 1.175,-3.121 -0.398,-1.164 c 0,0 -6.426,-0.184 -7.207,-1.551 l -1.551,-2.934 c 0,0 -0.785,-2.332 2.141,-4.285 0,0 4.277,-3.496 -0.59,-2.523 l -4.281,1.172 -1.168,-2.739 c 0,0 -3.11,0.387 -4.672,4.293 0,0 -3.902,2.532 -4.488,2.93 0,0 -3.305,1.551 -3.895,5.254 0,0 -3.312,3.879 -5.062,5.258 l -4.289,3.316 -4.282,3.504 c 0,0 -2.336,1.363 -2.336,5.836 0,0 -0.402,4.082 -2.925,3.887 0,0 -3.891,-2.711 -5.836,1.375 l -0.782,1.363 c 0,0 2.922,0.191 2.34,2.145 0,0 -1.765,5.648 -6.445,9.742 0,0 1.176,1.359 -1.555,4.675 l -4.476,4.672 c 0,0 -4.473,3.496 -4.668,4.871 0,0 -2.157,3.11 -5.848,5.645 l -12.66,10.922 c 0,0 -12.27,10.711 -14.606,11.48 z"
           style="fill:none;stroke:#263d96;stroke-width:0.67299998;stroke-linecap:butt;stroke-linejoin:miter;stroke-miterlimit:4;stroke-dasharray:none;stroke-opacity:1"
           id="path895" />
        <path
           d="m 328.031,360.57 c 0,0 -3.898,-0.386 -4.871,3.125 l -0.976,2.336 c 0,0 -1.168,2.532 0,3.321 l 3.312,2.523 c 0,0 5.063,1.363 6.82,-1.562 l 2.149,-2.926 c 0,0 1.359,-2.719 0,-4.668 l 0.199,-3.903 c 0,0 -1.766,-0.386 -4.883,1.368 l -1.75,0.386"
           style="fill:#263d96;fill-opacity:1;fill-rule:nonzero;stroke:none"
           id="path897" />
        <path
           d="m 328.031,360.57 c 0,0 -3.898,-0.386 -4.871,3.125 l -0.976,2.336 c 0,0 -1.168,2.532 0,3.321 l 3.312,2.523 c 0,0 5.063,1.363 6.82,-1.562 l 2.149,-2.926 c 0,0 1.359,-2.719 0,-4.668 l 0.199,-3.903 c 0,0 -1.766,-0.386 -4.883,1.368 z"
           style="fill:none;stroke:#263d96;stroke-width:0.67299998;stroke-linecap:butt;stroke-linejoin:miter;stroke-miterlimit:4;stroke-dasharray:none;stroke-opacity:1"
           id="path899" />
        <path
           d="m 343.254,152.91 c 0,0 -2.75,2.735 1.555,3.899 0,0 4.332,0.398 5.507,2.371 0,0 7.86,7.851 9.43,0.781 0,0 1.172,-16.477 -1.191,-19.617 0,0 -4.301,-5.891 -9.02,-5.5 0,0 -2.355,0 -3.926,9.433 0,0 1.176,6.661 -0.398,7.442 l -1.957,1.191"
           style="fill:#263d96;fill-opacity:1;fill-rule:nonzero;stroke:none"
           id="path901" />
        <path
           d="m 343.254,152.91 c 0,0 -2.75,2.735 1.555,3.899 0,0 4.332,0.398 5.507,2.371 0,0 7.86,7.851 9.43,0.781 0,0 1.172,-16.477 -1.191,-19.617 0,0 -4.301,-5.891 -9.02,-5.5 0,0 -2.355,0 -3.926,9.433 0,0 1.176,6.661 -0.398,7.442 z"
           style="fill:none;stroke:#263d96;stroke-width:0.67299998;stroke-linecap:butt;stroke-linejoin:miter;stroke-miterlimit:4;stroke-dasharray:none;stroke-opacity:1"
           id="path903" />
        <path
           d="m 336.57,196.484 c 0,0 1.578,6.653 -8.636,9.786 0,0 -0.383,3.933 -1.957,3.933 0,0 3.531,1.563 0.394,11.789 0,0 6.672,1.953 9.024,6.278 0,0 11.398,-7.071 12.57,-1.961 0,0 1.57,3.144 1.57,5.879 l 1.965,0.39 c 0,0 7.055,-1.953 9.418,0.781 l 1.57,3.157 1.567,3.543 c 0,0 0.8,2.734 3.929,3.527 l 1.957,2.352 5.887,-0.782 c 0,0 4.324,-2.363 8.25,-0.39 l 3.524,0.39 c 0,0 4.328,2.344 5.496,-1.191 l 3.101,-6.777 c 0,0 -9.859,-6.172 -10.164,-10.11 l 1.184,-1.551 c 0,0 3.148,-2.343 1.965,-5.898 l 3.132,-3.535 c 0,0 1.961,-3.914 7.852,-3.535 0,0 6.672,-0.793 7.859,-6.668 l 8.629,-11.379 c 0,0 7.86,-0.782 10.61,0.793 0,0 3.129,1.941 3.906,-0.403 v -2.754 c 0,0 0.394,-4.328 7.082,-3.527 l 5.101,0.793 3.493,-4.043 c 0,0 -1.926,-3.273 -0.743,-6.035 0,0 -7.062,3.008 -8.644,1.047 0,0 -4.703,-5.52 -3.141,-11.399 0,0 5.895,3.133 4.719,-2.343 l -0.387,-3.157 -2.414,-1.082 c 0.153,-0.312 0.907,-3.554 -1.121,-5.593 0,0 -7.465,-10.188 -8.648,-10.188 l -0.383,3.145 c 0,0 4.699,7.05 5.086,9.035 0,0 -1.563,6.668 -5.086,9.793 0,0 -7.473,-3.125 -7.859,5.097 h -1.571 l -0.789,1.582 -12.168,1.563 c 0,0 -12.554,1.582 -13.332,10.215 0,0 -3.547,4.726 -11.004,3.933 0,0 -9.422,1.164 -10.207,9.797 0,0 -3.531,7.051 -18.051,5.907 L 336.57,196.484"
           style="fill:#263d96;fill-opacity:1;fill-rule:nonzero;stroke:none"
           id="path905" />
        <path
           d="m 336.57,196.484 c 0,0 1.578,6.653 -8.636,9.786 0,0 -0.383,3.933 -1.957,3.933 0,0 3.531,1.563 0.394,11.789 0,0 6.672,1.953 9.024,6.278 0,0 11.398,-7.071 12.57,-1.961 0,0 1.57,3.144 1.57,5.879 l 1.965,0.39 c 0,0 7.055,-1.953 9.418,0.781 l 1.57,3.157 1.567,3.543 c 0,0 0.8,2.734 3.929,3.527 l 1.957,2.352 5.887,-0.782 c 0,0 4.324,-2.363 8.25,-0.39 l 3.524,0.39 c 0,0 4.328,2.344 5.496,-1.191 l 3.101,-6.777 c 0,0 -9.859,-6.172 -10.164,-10.11 l 1.184,-1.551 c 0,0 3.148,-2.343 1.965,-5.898 l 3.132,-3.535 c 0,0 1.961,-3.914 7.852,-3.535 0,0 6.672,-0.793 7.859,-6.668 l 8.629,-11.379 c 0,0 7.86,-0.782 10.61,0.793 0,0 3.129,1.941 3.906,-0.403 v -2.754 c 0,0 0.394,-4.328 7.082,-3.527 l 5.101,0.793 3.493,-4.043 c 0,0 -1.926,-3.273 -0.743,-6.035 0,0 -7.062,3.008 -8.644,1.047 0,0 -4.703,-5.52 -3.141,-11.399 0,0 5.895,3.133 4.719,-2.343 l -0.387,-3.157 -2.414,-1.082 c 0.153,-0.312 0.907,-3.554 -1.121,-5.593 0,0 -7.465,-10.188 -8.648,-10.188 l -0.383,3.145 c 0,0 4.699,7.05 5.086,9.035 0,0 -1.563,6.668 -5.086,9.793 0,0 -7.473,-3.125 -7.859,5.097 h -1.571 l -0.789,1.582 -12.168,1.563 c 0,0 -12.554,1.582 -13.332,10.215 0,0 -3.547,4.726 -11.004,3.933 0,0 -9.422,1.164 -10.207,9.797 0,0 -3.531,7.051 -18.051,5.907 z"
           style="fill:none;stroke:#263d96;stroke-width:0.67299998;stroke-linecap:butt;stroke-linejoin:miter;stroke-miterlimit:4;stroke-dasharray:none;stroke-opacity:1"
           id="path907" />
        <path
           d="m 394.574,138.418 c 0,0 -4.863,-2.793 -2.504,-5 0,0 1.469,-2.355 5.895,-0.742 0,0 4.562,1.484 5.301,0.293 0,0 1.312,-1.477 5.586,-0.43 l 1.183,0.137 2.504,-0.449 c 0,0 5.297,-1.914 5.156,0.605 l -0.3,3.242 c 0,0 0,3.235 1.468,5.137 0,0 6.778,6.926 6.039,9.57 0,0 -3.238,-2.351 -3.828,-3.086 0,0 -5.886,-4.707 -8.535,-3.242 0,0 -2.949,-1.172 -3.539,-1.777 0,0 -3.824,-2.188 -6.027,-2.031 0,0 -7.368,-1.497 -8.399,-2.227"
           style="fill:#263d96;fill-opacity:1;fill-rule:nonzero;stroke:none"
           id="path909" />
        <path
           d="m 394.574,138.418 c 0,0 -4.863,-2.793 -2.504,-5 0,0 1.469,-2.355 5.895,-0.742 0,0 4.562,1.484 5.301,0.293 0,0 1.312,-1.477 5.586,-0.43 l 1.183,0.137 2.504,-0.449 c 0,0 5.297,-1.914 5.156,0.605 l -0.3,3.242 c 0,0 0,3.235 1.468,5.137 0,0 6.778,6.926 6.039,9.57 0,0 -3.238,-2.351 -3.828,-3.086 0,0 -5.886,-4.707 -8.535,-3.242 0,0 -2.949,-1.172 -3.539,-1.777 0,0 -3.824,-2.188 -6.027,-2.031 0,0 -7.368,-1.497 -8.399,-2.227 z"
           style="fill:none;stroke:#263d96;stroke-width:0.67299998;stroke-linecap:butt;stroke-linejoin:miter;stroke-miterlimit:4;stroke-dasharray:none;stroke-opacity:1"
           id="path911" />
        <path
           d="m 349.965,249.277 9.57,2.5 6.774,2.051 7.808,1.621 c 0,0 13.25,1.172 12.957,8.106 l -0.594,3.972 c 0,0 -1.328,3.379 0.594,6.477 l 3.082,4.121 c 0,0 8.258,-3.672 9.274,1.316 l 0.89,5.305 c 0,0 7.66,-0.293 15.305,3.086 l 1.031,-0.586 1.18,-1.316 2.941,-3.832 c 0,0 -2.804,-7.957 -3.082,-11.336 0,0 0.578,-4.278 1.168,-5.594 0,0 0.731,-1.477 -0.59,-2.063 0,0 -11.179,-1.035 -15.152,-7.363 l -1.027,-1.914 c 0,0 0.285,-1.316 -3.399,-1.015 l -7.058,0.136 h -1.481 l -7.058,-1.328 c 0,0 -1.774,-1.328 -6.774,0.156 0,0 -6.621,2.637 -11.34,-0.449 l -2.058,-1.621 c 0,0 -0.879,-1.609 -3.246,-1.609 0,0 -9.563,0.425 -9.715,1.179"
           style="fill:#263d96;fill-opacity:1;fill-rule:nonzero;stroke:none"
           id="path913" />
        <path
           d="m 349.965,249.277 9.57,2.5 6.774,2.051 7.808,1.621 c 0,0 13.25,1.172 12.957,8.106 l -0.594,3.972 c 0,0 -1.328,3.379 0.594,6.477 l 3.082,4.121 c 0,0 8.258,-3.672 9.274,1.316 l 0.89,5.305 c 0,0 7.66,-0.293 15.305,3.086 l 1.031,-0.586 1.18,-1.316 2.941,-3.832 c 0,0 -2.804,-7.957 -3.082,-11.336 0,0 0.578,-4.278 1.168,-5.594 0,0 0.731,-1.477 -0.59,-2.063 0,0 -11.179,-1.035 -15.152,-7.363 l -1.027,-1.914 c 0,0 0.285,-1.316 -3.399,-1.015 l -7.058,0.136 h -1.481 l -7.058,-1.328 c 0,0 -1.774,-1.328 -6.774,0.156 0,0 -6.621,2.637 -11.34,-0.449 l -2.058,-1.621 c 0,0 -0.879,-1.609 -3.246,-1.609 0,0 -9.563,0.425 -9.715,1.179 z"
           style="fill:none;stroke:#263d96;stroke-width:0.67299998;stroke-linecap:butt;stroke-linejoin:miter;stroke-miterlimit:4;stroke-dasharray:none;stroke-opacity:1"
           id="path915" />
        <path
           d="m 425.793,279.148 c 0,0 6.031,-2.937 7.934,2.512 l 0.449,2.344 c 0,0 0.289,3.555 2.062,4.57 l 2.203,1.758 c 0,0 2.512,2.52 1.477,4.863 v 2.95 c 0,0 -0.586,3.085 1.773,3.386 0,0 3.676,0.305 5.891,5.735 l 1.316,-1.028 c 0,0 -1.464,-11.336 -0.148,-17.215 l 0.738,-1.328 c 0,0 1.328,-1.765 0,-3.535 0,0 -1.336,-3.242 -0.445,-4.414 0,0 1.773,-5.605 -2.195,-7.062 l -1.188,-0.594 -1.324,-1.184 c 0,0 -6.035,-7.351 -6.34,-7.957 0,0 -2.797,-4.258 -4.113,-4.258 0,0 -5.735,6.622 -9.426,6.77 0,0 -0.59,2.801 -0.883,3.387 0,0 -1.023,1.621 0.739,6.472 l 1.48,3.828"
           style="fill:#263d96;fill-opacity:1;fill-rule:nonzero;stroke:none"
           id="path917" />
        <path
           d="m 425.793,279.148 c 0,0 6.031,-2.937 7.934,2.512 l 0.449,2.344 c 0,0 0.289,3.555 2.062,4.57 l 2.203,1.758 c 0,0 2.512,2.52 1.477,4.863 v 2.95 c 0,0 -0.586,3.085 1.773,3.386 0,0 3.676,0.305 5.891,5.735 l 1.316,-1.028 c 0,0 -1.464,-11.336 -0.148,-17.215 l 0.738,-1.328 c 0,0 1.328,-1.765 0,-3.535 0,0 -1.336,-3.242 -0.445,-4.414 0,0 1.773,-5.605 -2.195,-7.062 l -1.188,-0.594 -1.324,-1.184 c 0,0 -6.035,-7.351 -6.34,-7.957 0,0 -2.797,-4.258 -4.113,-4.258 0,0 -5.735,6.622 -9.426,6.77 0,0 -0.59,2.801 -0.883,3.387 0,0 -1.023,1.621 0.739,6.472 z"
           style="fill:none;stroke:#263d96;stroke-width:0.67299998;stroke-linecap:butt;stroke-linejoin:miter;stroke-miterlimit:4;stroke-dasharray:none;stroke-opacity:1"
           id="path919" />
        <path
           d="m 444.629,315.652 0.293,-1.914 c 0,0 -1.324,-1.609 -1.918,-2.343 0,0 -1.457,-3.68 -4.41,-3.387 0,0 -2.797,-1.621 -2.942,-5.742 l 0.145,-5.293 c 0,0 -5.449,-5.743 -6.035,-7.071 l -0.598,-4.414 c 0,0 -6.035,-0.89 -8.973,7.063 0,0 -0.738,5.008 -6.476,2.195 l -3.383,-1.465 c 0,0 -3.238,-3.523 -10.746,-1.609 0,0 -5.602,-0.442 -5.754,-7.375 0,0 -2.641,0 -4.855,2.363 0,0 -2.942,1.172 -5.731,1.035 0,0 -4.277,0.137 -6.922,2.793 l -3.828,1.758 c 0,0 -1.324,3.547 -0.433,4.434 0,0 2.937,2.656 5.878,3.816 0,0 3.536,2.512 4.27,4.406 0,0 3.684,6.641 5.301,6.778 l 0.879,-0.442 c 0,0 0.441,-2.508 4.132,-0.886 l 4.415,2.363 c 0,0 3.082,1.316 5.156,0 l 7.347,-3.684 2.36,-1.316 c 0,0 3.531,-2.207 5.156,-0.449 0,0 1.609,1.027 3.973,0 0,0 6.035,-2.793 7.648,-1.328 l 3.102,-1.309 c 0,0 2.047,0.879 1.465,3.086 0,0 -0.446,4.707 3.535,5 0,0 7.504,0 7.949,2.937"
           style="fill:#263d96;fill-opacity:1;fill-rule:nonzero;stroke:none"
           id="path921" />
        <path
           d="m 444.629,315.652 0.293,-1.914 c 0,0 -1.324,-1.609 -1.918,-2.343 0,0 -1.457,-3.68 -4.41,-3.387 0,0 -2.797,-1.621 -2.942,-5.742 l 0.145,-5.293 c 0,0 -5.449,-5.743 -6.035,-7.071 l -0.598,-4.414 c 0,0 -6.035,-0.89 -8.973,7.063 0,0 -0.738,5.008 -6.476,2.195 l -3.383,-1.465 c 0,0 -3.238,-3.523 -10.746,-1.609 0,0 -5.602,-0.442 -5.754,-7.375 0,0 -2.641,0 -4.855,2.363 0,0 -2.942,1.172 -5.731,1.035 0,0 -4.277,0.137 -6.922,2.793 l -3.828,1.758 c 0,0 -1.324,3.547 -0.433,4.434 0,0 2.937,2.656 5.878,3.816 0,0 3.536,2.512 4.27,4.406 0,0 3.684,6.641 5.301,6.778 l 0.879,-0.442 c 0,0 0.441,-2.508 4.132,-0.886 l 4.415,2.363 c 0,0 3.082,1.316 5.156,0 l 7.347,-3.684 2.36,-1.316 c 0,0 3.531,-2.207 5.156,-0.449 0,0 1.609,1.027 3.973,0 0,0 6.035,-2.793 7.648,-1.328 l 3.102,-1.309 c 0,0 2.047,0.879 1.465,3.086 0,0 -0.446,4.707 3.535,5 0,0 7.504,0 7.949,2.937 z"
           style="fill:none;stroke:#263d96;stroke-width:0.67299998;stroke-linecap:butt;stroke-linejoin:miter;stroke-miterlimit:4;stroke-dasharray:none;stroke-opacity:1"
           id="path923" />
        <path
           d="m 316.938,354.527 c -2.196,3.418 0.39,5.286 0.39,5.286 l -3.183,2.191 1.714,2.445 c -0.738,0.258 -2.453,4.399 -2.453,4.399 h 2.946 c 3.171,0 0.722,3.179 0.722,3.179 l -6.344,6.594 -2.449,-1.211 -2.929,2.926 c 1.711,0.484 0,4.156 0,4.156 l -2.692,6.348 c -3.183,-0.723 -13.203,-16.129 -13.203,-16.129 l 3.418,-11.238 3.18,0.242 c 2.937,-7.332 5.629,-6.356 5.629,-6.356 1.714,0 3.902,-2.207 3.902,-2.207 1.289,-1.906 1.508,-2.531 2.434,-4.398 l 8.918,3.773"
           style="fill:#263d96;fill-opacity:1;fill-rule:nonzero;stroke:none"
           id="path925" />
        <path
           d="m 316.938,354.527 c -2.196,3.418 0.39,5.286 0.39,5.286 l -3.183,2.191 1.714,2.445 c -0.738,0.258 -2.453,4.399 -2.453,4.399 h 2.946 c 3.171,0 0.722,3.179 0.722,3.179 l -6.344,6.594 -2.449,-1.211 -2.929,2.926 c 1.711,0.484 0,4.156 0,4.156 l -2.692,6.348 c -3.183,-0.723 -13.203,-16.129 -13.203,-16.129 l 3.418,-11.238 3.18,0.242 c 2.937,-7.332 5.629,-6.356 5.629,-6.356 1.714,0 3.902,-2.207 3.902,-2.207 1.289,-1.906 1.508,-2.531 2.434,-4.398 z"
           style="fill:none;stroke:#263d96;stroke-width:0.67299998;stroke-linecap:butt;stroke-linejoin:miter;stroke-miterlimit:4;stroke-dasharray:none;stroke-opacity:1"
           id="path927" />
        <path
           d="m 320.27,350.023 c 0,0 1.949,-1.218 3.902,-1.218 0,0 2.937,0.254 3.91,-0.489 l 0.492,1.707 c 0,0 -1.472,3.668 0.239,3.668 0,0 1.71,0.258 1.71,-3.425 v -5.614 c 0,0 0,-2.441 1.469,-3.91 0,0 2.688,-4.398 2.688,-5.137 0,0 1.465,-2.441 2.691,-2.675 0,0 -1.719,-2.93 -1.719,-3.914 0,0 -0.23,-2.446 1.953,-4.895 0,0 1.711,-3.176 0.25,-4.648 0,0 -1.71,-3.418 -0.25,-5.371 l 0.739,-1.711 c 0,0 -4.403,-1.961 -1.465,-6.121 l 2.695,-5.129 c 0,0 -2.695,-5.379 0.485,-7.567 l 7.816,-3.437 c 0,0 2.441,-1.946 5.859,0.984 0,0 6.848,6.125 10.762,2.922 0,0 2.926,-5.605 3.664,-6.34 0,0 5.668,-7.066 14.938,-7.078 0,0 -4.715,-5.742 -3.973,-11.348 l 0.73,-5.136 -11.476,-2.657 -11.348,-2.949 c 0,0 -11.484,-4.551 -15.301,-1.172 0,0 -3.976,0.742 -8.386,-2.058 l -6.196,-2.953 2.661,12.511 c 0,0 3.089,7.364 -7.657,8.262 l -13.246,-1.035 c 0,0 -1.843,5.586 -3.32,6.328 0,0 -5.863,5.383 -4.402,10.762 0,0 -0.981,2.656 -2.192,3.172 0,0 -2.683,2.199 -2.449,5.871 v 2.683 l -0.234,2.192 c 0,0 14.421,-0.481 11.484,9.785 0,0 -1.223,3.894 -2.441,3.894 0,0 2.683,5.157 0.972,6.856 0,0 -4.144,7.324 -6.847,7.82 0,0 -0.731,3.438 1.464,2.942 l 3.418,-0.977 c 0,0 10.274,-5.625 9.047,2.926 l -3.875,9.945 9.184,4.375 1.555,-0.641"
           style="fill:#263d96;fill-opacity:1;fill-rule:nonzero;stroke:none"
           id="path929" />
        <path
           d="m 320.27,350.023 c 0,0 1.949,-1.218 3.902,-1.218 0,0 2.937,0.254 3.91,-0.489 l 0.492,1.707 c 0,0 -1.472,3.668 0.239,3.668 0,0 1.71,0.258 1.71,-3.425 v -5.614 c 0,0 0,-2.441 1.469,-3.91 0,0 2.688,-4.398 2.688,-5.137 0,0 1.465,-2.441 2.691,-2.675 0,0 -1.719,-2.93 -1.719,-3.914 0,0 -0.23,-2.446 1.953,-4.895 0,0 1.711,-3.176 0.25,-4.648 0,0 -1.71,-3.418 -0.25,-5.371 l 0.739,-1.711 c 0,0 -4.403,-1.961 -1.465,-6.121 l 2.695,-5.129 c 0,0 -2.695,-5.379 0.485,-7.567 l 7.816,-3.437 c 0,0 2.441,-1.946 5.859,0.984 0,0 6.848,6.125 10.762,2.922 0,0 2.926,-5.605 3.664,-6.34 0,0 5.668,-7.066 14.938,-7.078 0,0 -4.715,-5.742 -3.973,-11.348 l 0.73,-5.136 -11.476,-2.657 -11.348,-2.949 c 0,0 -11.484,-4.551 -15.301,-1.172 0,0 -3.976,0.742 -8.386,-2.058 l -6.196,-2.953 2.661,12.511 c 0,0 3.089,7.364 -7.657,8.262 l -13.246,-1.035 c 0,0 -1.843,5.586 -3.32,6.328 0,0 -5.863,5.383 -4.402,10.762 0,0 -0.981,2.656 -2.192,3.172 0,0 -2.683,2.199 -2.449,5.871 v 2.683 l -0.234,2.192 c 0,0 14.421,-0.481 11.484,9.785 0,0 -1.223,3.894 -2.441,3.894 0,0 2.683,5.157 0.972,6.856 0,0 -4.144,7.324 -6.847,7.82 0,0 -0.731,3.438 1.464,2.942 l 3.418,-0.977 c 0,0 10.274,-5.625 9.047,2.926 l -3.875,9.945 9.184,4.375 z"
           style="fill:none;stroke:#263d96;stroke-width:0.67299998;stroke-linecap:butt;stroke-linejoin:miter;stroke-miterlimit:4;stroke-dasharray:none;stroke-opacity:1"
           id="path931" />
        <path
           d="m 298.992,309.707 c 0,0 -9.535,2.441 -10.996,-5.867 l 0.246,-2.934 c 0,0 -9.527,0.481 -14.668,-3.183 -5.136,-3.68 -0.246,0.5 -0.246,0.5 l -4.406,0.476 c 0,0 5.387,2.688 11.5,3.918 0,0 6.098,1.699 1.219,2.196 0,0 -6.118,-1.473 -6.844,2.687 0,0 -2.199,10.996 0.246,12.715 0,0 -2.207,3.418 -0.246,4.883 l 1.226,0.742 12.219,2.195 3.168,0.727 c 0,0 3.668,1.472 3.668,-0.481 l 3.914,-6.347 0.485,-0.262 -1.942,-2.434 c 0,0 -2.457,-4.902 1.457,-6.113 l 0.985,-0.977 -0.985,-2.441"
           style="fill:#263d96;fill-opacity:1;fill-rule:nonzero;stroke:none"
           id="path933" />
        <path
           d="m 298.992,309.707 c 0,0 -9.535,2.441 -10.996,-5.867 l 0.246,-2.934 c 0,0 -9.527,0.481 -14.668,-3.183 -5.136,-3.68 -0.246,0.5 -0.246,0.5 l -4.406,0.476 c 0,0 5.387,2.688 11.5,3.918 0,0 6.098,1.699 1.219,2.196 0,0 -6.118,-1.473 -6.844,2.687 0,0 -2.199,10.996 0.246,12.715 0,0 -2.207,3.418 -0.246,4.883 l 1.226,0.742 12.219,2.195 3.168,0.727 c 0,0 3.668,1.472 3.668,-0.481 l 3.914,-6.347 0.485,-0.262 -1.942,-2.434 c 0,0 -2.457,-4.902 1.457,-6.113 l 0.985,-0.977 z"
           style="fill:none;stroke:#263d96;stroke-width:0.67299998;stroke-linecap:butt;stroke-linejoin:miter;stroke-miterlimit:4;stroke-dasharray:none;stroke-opacity:1"
           id="path935" />
        <path
           d="m 331.363,334.707 -4.25,7.285 c 0,0 8.309,4.137 10.492,5.348 l 2.942,2.926 1.215,0.742 c 0,0 3.183,1.219 11.738,-0.985 0,0 0.738,-4.394 3.418,-4.632 0,0 4.641,-2.7 6.602,-7.586 0,0 2.675,-5.129 7.082,-5.364 0,0 1.218,-5.136 3.429,-5.625 l 2.68,-2.441 3.91,-9.797 c 0,0 -4.883,-8.055 -6.098,-8.055 l -3.668,-2.207 -4.156,-3.652 c 0,0 -6.363,2.93 -9.301,0.477 l -2.675,-1.953 -5.871,-2.43 -12.629,-2.715 c 0,0 1.101,0.809 -0.61,3.027 -1.707,2.188 -1.824,3.028 -1.824,3.028 h -1.211 c 0,0 3.289,3.984 0.61,7.898 0,0 -3.176,1.328 -1.219,3.039 0,0 6.219,3.848 1.82,8.496 0,0 4.039,4.207 -1.82,9.102 l -0.606,6.074"
           style="fill:#263d96;fill-opacity:1;fill-rule:nonzero;stroke:none"
           id="path937" />
        <path
           d="m 331.363,334.707 -4.25,7.285 c 0,0 8.309,4.137 10.492,5.348 l 2.942,2.926 1.215,0.742 c 0,0 3.183,1.219 11.738,-0.985 0,0 0.738,-4.394 3.418,-4.632 0,0 4.641,-2.7 6.602,-7.586 0,0 2.675,-5.129 7.082,-5.364 0,0 1.218,-5.136 3.429,-5.625 l 2.68,-2.441 3.91,-9.797 c 0,0 -4.883,-8.055 -6.098,-8.055 l -3.668,-2.207 -4.156,-3.652 c 0,0 -6.363,2.93 -9.301,0.477 l -2.675,-1.953 -5.871,-2.43 -12.629,-2.715 c 0,0 1.101,0.809 -0.61,3.027 -1.707,2.188 -1.824,3.028 -1.824,3.028 h -1.211 c 0,0 3.289,3.984 0.61,7.898 0,0 -3.176,1.328 -1.219,3.039 0,0 6.219,3.848 1.82,8.496 0,0 4.039,4.207 -1.82,9.102 z"
           style="fill:none;stroke:#263d96;stroke-width:0.67299998;stroke-linecap:butt;stroke-linejoin:miter;stroke-miterlimit:4;stroke-dasharray:none;stroke-opacity:1"
           id="path939" />
        <path
           d="m 370.359,362.488 c 1.461,-2.929 -1.476,-4.148 -1.476,-4.148 -4.149,0.23 -11.965,-6.598 -11.965,-6.598 l 3.664,-2.199 c 0,0 5.863,-5.621 6.352,-6.852 0,0 2.937,-5.117 4.886,-5.371 0,0 4.899,-1.226 5.137,-5.867 0,0 6.117,-6.121 7.824,-10.75 0,0 4.891,-1.953 5.375,-3.437 l 1.465,0.254 c 0,0 4.895,4.152 11.738,0.976 l 10.508,-5.371 c 0,0 2.203,2.684 10.75,-0.734 0,0 1.223,4.152 4.406,1.222 0,0 0.481,4.395 6.36,5.625 l 5.863,1.953 c 0,0 -2.203,18.329 -10.762,28.094 l -5.867,6.852 c 0,0 -4.64,0.976 -5.129,3.676 l -0.25,3.175 c 0,0 1.223,1.95 -5.136,6.598 l -10.258,8.547 c 0,0 -5.129,4.394 -9.043,-1.457 l -3.906,-4.403 c 0,0 -1.711,-0.98 -3.43,-0.246 0,0 -2.668,0.731 -2.922,-0.242 l 0.977,-1.472 c 0,0 2.199,-2.934 -2.7,-1.958 0,0 -5.863,4.161 -6.84,3.918 0,0 -0.98,-3.918 -2.937,-4.16 0,0 -4.391,-0.972 -3.418,-3.91 l 0.734,-1.715"
           style="fill:#263d96;fill-opacity:1;fill-rule:nonzero;stroke:none"
           id="path941" />
        <path
           d="m 370.359,362.488 c 1.461,-2.929 -1.476,-4.148 -1.476,-4.148 -4.149,0.23 -11.965,-6.598 -11.965,-6.598 l 3.664,-2.199 c 0,0 5.863,-5.621 6.352,-6.852 0,0 2.937,-5.117 4.886,-5.371 0,0 4.899,-1.226 5.137,-5.867 0,0 6.117,-6.121 7.824,-10.75 0,0 4.891,-1.953 5.375,-3.437 l 1.465,0.254 c 0,0 4.895,4.152 11.738,0.976 l 10.508,-5.371 c 0,0 2.203,2.684 10.75,-0.734 0,0 1.223,4.152 4.406,1.222 0,0 0.481,4.395 6.36,5.625 l 5.863,1.953 c 0,0 -2.203,18.329 -10.762,28.094 l -5.867,6.852 c 0,0 -4.64,0.976 -5.129,3.676 l -0.25,3.175 c 0,0 1.223,1.95 -5.136,6.598 l -10.258,8.547 c 0,0 -5.129,4.394 -9.043,-1.457 l -3.906,-4.403 c 0,0 -1.711,-0.98 -3.43,-0.246 0,0 -2.668,0.731 -2.922,-0.242 l 0.977,-1.472 c 0,0 2.199,-2.934 -2.7,-1.958 0,0 -5.863,4.161 -6.84,3.918 0,0 -0.98,-3.918 -2.937,-4.16 0,0 -4.391,-0.972 -3.418,-3.91 z"
           style="fill:none;stroke:#263d96;stroke-width:0.67299998;stroke-linecap:butt;stroke-linejoin:miter;stroke-miterlimit:4;stroke-dasharray:none;stroke-opacity:1"
           id="path943" />
        <path
           d="m 465.199,248.359 0.481,-1.699 0.98,-0.984 c 0,0 1.223,-5.383 0.485,-16.379 0,0 2.933,-2.695 1.953,-7.344 0,0 1.718,7.344 2.687,7.578 l 0.738,2.207 c 0,0 1.231,20.282 -2.195,41.555 0,0 2.676,-19.309 -0.98,-21.762 0,0 -2.203,-1.453 -2.203,-2.929 0,0 0.253,-2.196 -1.946,-0.243"
           style="fill:#263d96;fill-opacity:1;fill-rule:nonzero;stroke:none"
           id="path945" />
        <path
           d="m 465.199,248.359 0.481,-1.699 0.98,-0.984 c 0,0 1.223,-5.383 0.485,-16.379 0,0 2.933,-2.695 1.953,-7.344 0,0 1.718,7.344 2.687,7.578 l 0.738,2.207 c 0,0 1.231,20.282 -2.195,41.555 0,0 2.676,-19.309 -0.98,-21.762 0,0 -2.203,-1.453 -2.203,-2.929 0,0 0.253,-2.196 -1.946,-0.243 z"
           style="fill:none;stroke:#263d96;stroke-width:0.67299998;stroke-linecap:butt;stroke-linejoin:miter;stroke-miterlimit:4;stroke-dasharray:none;stroke-opacity:1"
           id="path947" />
        <path
           d="m 454.441,323.867 6.594,-11.965 c 0,0 7.332,-23.699 8.567,-34.226 0,0 0.972,-15.867 0.238,-17.102 0,0 -0.492,-2.429 -2.203,-2.429 l -1.469,-1.719 -1.227,0.488 c 0,0 -1.207,7.324 -3.664,3.184 l -1.461,-1.719 c 0,0 -0.246,6.601 -5.375,6.355 0,0 -1.238,5.129 -2.445,5.383 0,0 1.477,3.653 0.738,5.86 l 0.485,5.371 c 0,0 0.242,8.308 -0.985,9.043 0,0 -1.218,5.644 -0.238,7.832 0,0 0.484,6.347 -0.492,7.09 0,0 -0.488,5.378 2.195,4.152 0,0 2.446,-3.176 2.934,0.973 0,0 -1.461,9.777 -2.192,10.507 v 2.922"
           style="fill:#263d96;fill-opacity:1;fill-rule:nonzero;stroke:none"
           id="path949" />
        <path
           d="m 454.441,323.867 6.594,-11.965 c 0,0 7.332,-23.699 8.567,-34.226 0,0 0.972,-15.867 0.238,-17.102 0,0 -0.492,-2.429 -2.203,-2.429 l -1.469,-1.719 -1.227,0.488 c 0,0 -1.207,7.324 -3.664,3.184 l -1.461,-1.719 c 0,0 -0.246,6.601 -5.375,6.355 0,0 -1.238,5.129 -2.445,5.383 0,0 1.477,3.653 0.738,5.86 l 0.485,5.371 c 0,0 0.242,8.308 -0.985,9.043 0,0 -1.218,5.644 -0.238,7.832 0,0 0.484,6.347 -0.492,7.09 0,0 -0.488,5.378 2.195,4.152 0,0 2.446,-3.176 2.934,0.973 0,0 -1.461,9.777 -2.192,10.507 z"
           style="fill:none;stroke:#263d96;stroke-width:0.67299998;stroke-linecap:butt;stroke-linejoin:miter;stroke-miterlimit:4;stroke-dasharray:none;stroke-opacity:1"
           id="path951" />
        <path
           d="m 397.242,245.195 c 0,0 6.356,-0.488 9.043,3.899 l 1.719,1.715 c 0,0 1.461,2.921 4.394,3.644 l 9.297,2.695 0.485,0.997 c 0,0 3.175,1.453 6.593,-3.438 0,0 4.887,-6.105 8.067,-1.453 l 10.277,11.726 c 0,0 2.926,2.442 3.664,-1.464 l 0.723,-3.184 c 0,0 1.715,-3.418 5.129,-2.93 0,0 0.738,-9.531 4.164,-5.871 l 1.703,2.688 c 0,0 1.461,-3.184 0.496,-6.582 0,0 -0.258,-9.289 2.203,-10.039 l -0.258,-4.883 -0.246,-7.078 c 0,0 0.504,-4.407 2.215,-4.653 0,0 1.215,-3.191 0,-4.89 l -2.453,-4.649 c 0,0 -4.394,-7.812 -4.641,-9.043 l -5.621,-17.832 -1.961,2.442 0.985,7.812 -0.985,1.719 c 0,0 1.961,12.715 -1.957,14.434 l -9.281,2.929 -3.66,-0.508 c 0,0 -0.984,6.36 -6.359,4.895 0,0 -3.672,-1.223 -10.262,7.566 0,0 -0.254,2.957 -5.383,3.204 0,0 2.441,4.882 -0.738,5.839 l -2.196,1.731 c 0,0 -3.179,0.73 -3.914,-3.188 l -1.707,-6.59 c 0,0 -8.308,6.59 -8.308,10.02 l 0.969,2.93 -0.969,0.488 -1.227,4.902"
           style="fill:#263d96;fill-opacity:1;fill-rule:nonzero;stroke:none"
           id="path953" />
        <path
           d="m 397.242,245.195 c 0,0 6.356,-0.488 9.043,3.899 l 1.719,1.715 c 0,0 1.461,2.921 4.394,3.644 l 9.297,2.695 0.485,0.997 c 0,0 3.175,1.453 6.593,-3.438 0,0 4.887,-6.105 8.067,-1.453 l 10.277,11.726 c 0,0 2.926,2.442 3.664,-1.464 l 0.723,-3.184 c 0,0 1.715,-3.418 5.129,-2.93 0,0 0.738,-9.531 4.164,-5.871 l 1.703,2.688 c 0,0 1.461,-3.184 0.496,-6.582 0,0 -0.258,-9.289 2.203,-10.039 l -0.258,-4.883 -0.246,-7.078 c 0,0 0.504,-4.407 2.215,-4.653 0,0 1.215,-3.191 0,-4.89 l -2.453,-4.649 c 0,0 -4.394,-7.812 -4.641,-9.043 l -5.621,-17.832 -1.961,2.442 0.985,7.812 -0.985,1.719 c 0,0 1.961,12.715 -1.957,14.434 l -9.281,2.929 -3.66,-0.508 c 0,0 -0.984,6.36 -6.359,4.895 0,0 -3.672,-1.223 -10.262,7.566 0,0 -0.254,2.957 -5.383,3.204 0,0 2.441,4.882 -0.738,5.839 l -2.196,1.731 c 0,0 -3.179,0.73 -3.914,-3.188 l -1.707,-6.59 c 0,0 -8.308,6.59 -8.308,10.02 l 0.969,2.93 -0.969,0.488 z"
           style="fill:none;stroke:#263d96;stroke-width:0.67299998;stroke-linecap:butt;stroke-linejoin:miter;stroke-miterlimit:4;stroke-dasharray:none;stroke-opacity:1"
           id="path955" />
        <path
           d="m 455.906,181.633 2.203,5.613 c 0,0 2.926,11.504 4.645,13.445 l 9.519,23.481 c 0,0 -1.457,-20.051 -4.39,-24.192 l -0.973,4.629 -0.25,-9.043 c 0,0 0,-7.336 -1.719,-8.789 -1.703,-1.464 -0.246,-0.488 -0.246,-0.488 l 1.473,-2.207 c 0,0 -1.949,-8.555 -2.93,-11.746 0,0 -2.687,-2.922 -2.441,-8.051 0,0 -0.5,-3.914 -1.703,-4.148 l -1.969,-3.664 0.734,3.886 -2.195,-4.402 c 0,0 2.434,13.691 3.66,15.41 0,0 1.477,4.649 2.692,4.649 0,0 3.414,3.925 0.98,3.925 l -4.391,-7.109 -2.699,8.801"
           style="fill:#263d96;fill-opacity:1;fill-rule:nonzero;stroke:none"
           id="path957" />
        <path
           d="m 455.906,181.633 2.203,5.613 c 0,0 2.926,11.504 4.645,13.445 l 9.519,23.481 c 0,0 -1.457,-20.051 -4.39,-24.192 l -0.973,4.629 -0.25,-9.043 c 0,0 0,-7.336 -1.719,-8.789 -1.703,-1.464 -0.246,-0.488 -0.246,-0.488 l 1.473,-2.207 c 0,0 -1.949,-8.555 -2.93,-11.746 0,0 -2.687,-2.922 -2.441,-8.051 0,0 -0.5,-3.914 -1.703,-4.148 l -1.969,-3.664 0.734,3.886 -2.195,-4.402 c 0,0 2.434,13.691 3.66,15.41 0,0 1.477,4.649 2.692,4.649 0,0 3.414,3.925 0.98,3.925 l -4.391,-7.109 z"
           style="fill:none;stroke:#263d96;stroke-width:0.67299998;stroke-linecap:butt;stroke-linejoin:miter;stroke-miterlimit:4;stroke-dasharray:none;stroke-opacity:1"
           id="path959" />
        <path
           d="m 689.91,44.1992 c 0,0 6.66,-4.4336 12.215,0.3711 l 8.133,4.4531 c 0,0 4.066,2.586 2.957,0 0,0 6.664,3.3204 3.711,-0.3828 0,0 -5.18,-7.0195 -8.512,-7.0195 0,0 4.422,4.8125 -1.113,2.2266 l -4.442,-2.586 c 0,0 -9.976,-9.6211 -7.777,-4.0742 0,0 -2.937,-1.8555 -3.32,0.3633 0,0 -3.688,-3.3125 -4.438,-1.1055 0,0 -4.433,-2.5976 -4.433,1.1055 l -2.211,0.7305 c 0,0 -4.446,-1.836 -3.34,2.2265 l 1.851,1.8438 c 0,0 8.872,0.3711 10.719,1.8476"
           style="fill:#ef2e31;fill-opacity:1;fill-rule:nonzero;stroke:none"
           id="path961" />
        <path
           d="m 689.91,44.1992 c 0,0 6.66,-4.4336 12.215,0.3711 l 8.133,4.4531 c 0,0 4.066,2.586 2.957,0 0,0 6.664,3.3204 3.711,-0.3828 0,0 -5.18,-7.0195 -8.512,-7.0195 0,0 4.422,4.8125 -1.113,2.2266 l -4.442,-2.586 c 0,0 -9.976,-9.6211 -7.777,-4.0742 0,0 -2.937,-1.8555 -3.32,0.3633 0,0 -3.688,-3.3125 -4.438,-1.1055 0,0 -4.433,-2.5976 -4.433,1.1055 l -2.211,0.7305 c 0,0 -4.446,-1.836 -3.34,2.2265 l 1.851,1.8438 c 0,0 8.872,0.3711 10.719,1.8476 z"
           style="fill:none;stroke:#ef2e31;stroke-width:0.67299998;stroke-linecap:butt;stroke-linejoin:miter;stroke-miterlimit:4;stroke-dasharray:none;stroke-opacity:1"
           id="path963" />
        <path
           d="m 775.371,127.051 6.633,0.371 0.019,-2.949 c 0,0 -3.257,-4.317 -4.742,-7.649 0,0 -0.816,3.215 -5.617,-2.703 l -0.379,2.578 4.086,10.352"
           style="fill:#ef2e31;fill-opacity:1;fill-rule:nonzero;stroke:none"
           id="path965" />
        <path
           d="m 775.371,127.051 6.633,0.371 0.019,-2.949 c 0,0 -3.257,-4.317 -4.742,-7.649 0,0 -0.816,3.215 -5.617,-2.703 l -0.379,2.578 z"
           style="fill:none;stroke:#ef2e31;stroke-width:0.94199997;stroke-linecap:butt;stroke-linejoin:miter;stroke-miterlimit:4;stroke-dasharray:none;stroke-opacity:1"
           id="path967" />
        <path
           d="m 770.512,123.008 -3.293,-8.164 0.379,-4.051 -11.11,-6.672 c 0,0 -1.886,2.305 0.336,3.418 0,0 5.594,1.777 4.11,5.09 0,0 0,6.668 2.964,7.039 l 6.614,3.34"
           style="fill:#ef2e31;fill-opacity:1;fill-rule:nonzero;stroke:none"
           id="path969" />
        <path
           d="m 770.512,123.008 -3.293,-8.164 0.379,-4.051 -11.11,-6.672 c 0,0 -1.886,2.305 0.336,3.418 0,0 5.594,1.777 4.11,5.09 0,0 0,6.668 2.964,7.039 z"
           style="fill:none;stroke:#ef2e31;stroke-width:0.94199997;stroke-linecap:butt;stroke-linejoin:miter;stroke-miterlimit:4;stroke-dasharray:none;stroke-opacity:1"
           id="path971" />
        <path
           d="m 700.434,107.977 c 0,0 -3.969,-2.793 -0.446,-3.524 0,0 5.16,-0.742 9.575,3.367 l 5.742,3.547 2.215,-1.328 c 0,0 5.293,2.195 7.5,0.899 l 2.203,-0.743 c 0,0 3.246,-0.879 5.453,-0.156 0,0 8.394,2.363 8.98,0 l -0.89,-0.879 c 0,0 1.172,-1.34 5.015,-0.449 0,0 10.309,5.156 11.043,8.113 l -0.886,0.434 c 0,0 -8.106,1.465 -11.489,0.586 0,0 -8.238,-0.871 -10.898,0.301 0,0 -6.328,2.351 -8.821,1.464 l -9.718,-2.636 c 0,0 -3.239,-0.586 -3.821,-2.52 0,0 -3.98,-3.23 -9.722,-5.879 l -1.035,-0.597"
           style="fill:#ef2e31;fill-opacity:1;fill-rule:nonzero;stroke:none"
           id="path973" />
        <path
           d="m 700.434,107.977 c 0,0 -3.969,-2.793 -0.446,-3.524 0,0 5.16,-0.742 9.575,3.367 l 5.742,3.547 2.215,-1.328 c 0,0 5.293,2.195 7.5,0.899 l 2.203,-0.743 c 0,0 3.246,-0.879 5.453,-0.156 0,0 8.394,2.363 8.98,0 l -0.89,-0.879 c 0,0 1.172,-1.34 5.015,-0.449 0,0 10.309,5.156 11.043,8.113 l -0.886,0.434 c 0,0 -8.106,1.465 -11.489,0.586 0,0 -8.238,-0.871 -10.898,0.301 0,0 -6.328,2.351 -8.821,1.464 l -9.718,-2.636 c 0,0 -3.239,-0.586 -3.821,-2.52 0,0 -3.98,-3.23 -9.722,-5.879 z"
           style="fill:none;stroke:#ef2e31;stroke-width:0.67299998;stroke-linecap:butt;stroke-linejoin:miter;stroke-miterlimit:4;stroke-dasharray:none;stroke-opacity:1"
           id="path975" />
        <path
           d="m 758.293,129.031 c 0,0 0.141,5.735 2.211,5.598 0,0 1.476,-1.777 -2.211,-5.598"
           style="fill:#ef2e31;fill-opacity:1;fill-rule:nonzero;stroke:none"
           id="path977" />
        <path
           d="m 758.293,129.031 c 0,0 0.141,5.735 2.211,5.598 0,0 1.476,-1.777 -2.211,-5.598 z"
           style="fill:none;stroke:#ef2e31;stroke-width:0.67299998;stroke-linecap:butt;stroke-linejoin:miter;stroke-miterlimit:4;stroke-dasharray:none;stroke-opacity:1"
           id="path979" />
        <path
           d="m 737.82,139.934 -0.578,-4.582 c 0,0 0.278,-2.5 2.645,-3.079 0,0 2.648,-1.187 1.621,2.637 0,0 -0.59,6.77 -3.688,5.024"
           style="fill:#ef2e31;fill-opacity:1;fill-rule:nonzero;stroke:none"
           id="path981" />
        <path
           d="m 737.82,139.934 -0.578,-4.582 c 0,0 0.278,-2.5 2.645,-3.079 0,0 2.648,-1.187 1.621,2.637 0,0 -0.59,6.77 -3.688,5.024 z"
           style="fill:none;stroke:#ef2e31;stroke-width:0.67299998;stroke-linecap:butt;stroke-linejoin:miter;stroke-miterlimit:4;stroke-dasharray:none;stroke-opacity:1"
           id="path983" />
        <path
           d="m 743.414,148.32 -2.203,3.223 c 0,0 1.633,4.121 3.828,1.484 l -1.625,-4.707"
           style="fill:#ef2e31;fill-opacity:1;fill-rule:nonzero;stroke:none"
           id="path985" />
        <path
           d="m 743.414,148.32 -2.203,3.223 c 0,0 1.633,4.121 3.828,1.484 z"
           style="fill:none;stroke:#ef2e31;stroke-width:0.67299998;stroke-linecap:butt;stroke-linejoin:miter;stroke-miterlimit:4;stroke-dasharray:none;stroke-opacity:1"
           id="path987" />
        <path
           d="m 746.066,144.785 c 0,0 1.477,3.379 3.243,1.465 0,0 3.535,-3.965 1.769,-5.137 0,0 -2.215,-0.468 -3.39,1.739 l -1.622,1.933"
           style="fill:#ef2e31;fill-opacity:1;fill-rule:nonzero;stroke:none"
           id="path989" />
        <path
           d="m 746.066,144.785 c 0,0 1.477,3.379 3.243,1.465 0,0 3.535,-3.965 1.769,-5.137 0,0 -2.215,-0.468 -3.39,1.739 z"
           style="fill:none;stroke:#ef2e31;stroke-width:0.67299998;stroke-linecap:butt;stroke-linejoin:miter;stroke-miterlimit:4;stroke-dasharray:none;stroke-opacity:1"
           id="path991" />
        <path
           d="m 754.609,137.559 c 0,0 0.59,-4.258 2.504,-3.379 0,0 1.914,1.914 0.723,3.086 0,0 -1.176,2.812 -3.227,0.293"
           style="fill:#ef2e31;fill-opacity:1;fill-rule:nonzero;stroke:none"
           id="path993" />
        <path
           d="m 754.609,137.559 c 0,0 0.59,-4.258 2.504,-3.379 0,0 1.914,1.914 0.723,3.086 0,0 -1.176,2.812 -3.227,0.293 z"
           style="fill:none;stroke:#ef2e31;stroke-width:0.67299998;stroke-linecap:butt;stroke-linejoin:miter;stroke-miterlimit:4;stroke-dasharray:none;stroke-opacity:1"
           id="path995" />
        <path
           d="m 671.289,48.0664 4.707,-4.4336 c 0,0 3.383,3.1133 6.047,2.5195 0,0 7.055,0 7.793,0.5938 0,0 10.75,15.4492 9.418,18.6836 L 680.266,53.9648 c 0,0 -3.825,-1.4843 -4.27,-1.6289 -0.445,-0.1406 -0.445,-0.1406 -0.445,-0.1406 l -0.293,-1.4726 -3.969,-2.6563"
           style="fill:#ef2e31;fill-opacity:1;fill-rule:nonzero;stroke:none"
           id="path997" />
        <path
           d="m 671.289,48.0664 4.707,-4.4336 c 0,0 3.383,3.1133 6.047,2.5195 0,0 7.055,0 7.793,0.5938 0,0 10.75,15.4492 9.418,18.6836 L 680.266,53.9648 c 0,0 -3.825,-1.4843 -4.27,-1.6289 -0.445,-0.1406 -0.445,-0.1406 -0.445,-0.1406 l -0.293,-1.4726 z"
           style="fill:none;stroke:#ef2e31;stroke-width:0.67299998;stroke-linecap:butt;stroke-linejoin:miter;stroke-miterlimit:4;stroke-dasharray:none;stroke-opacity:1"
           id="path999" />
        <path
           d="m 656.719,48.9453 1.898,2.3633 16.055,11.9141 c 0,0 4.129,-0.2735 7.066,1.914 0,0 1.77,1.9219 5.157,1.7774 l 7.656,-0.293 -16.344,-9.5898 c 0,0 -3.242,-1.1719 -4.262,-1.6016 0,0 -2.949,-2.5195 -3.101,-3.8203 0,0 -3.528,-1.336 -3.676,-2.2149 l -10.449,-0.4492"
           style="fill:#ef2e31;fill-opacity:1;fill-rule:nonzero;stroke:none"
           id="path1001" />
        <path
           d="m 656.719,48.9453 1.898,2.3633 16.055,11.9141 c 0,0 4.129,-0.2735 7.066,1.914 0,0 1.77,1.9219 5.157,1.7774 l 7.656,-0.293 -16.344,-9.5898 c 0,0 -3.242,-1.1719 -4.262,-1.6016 0,0 -2.949,-2.5195 -3.101,-3.8203 0,0 -3.528,-1.336 -3.676,-2.2149 z"
           style="fill:none;stroke:#ef2e31;stroke-width:0.67299998;stroke-linecap:butt;stroke-linejoin:miter;stroke-miterlimit:4;stroke-dasharray:none;stroke-opacity:1"
           id="path1003" />
        <path
           d="m 651.855,48.8008 c 0,0 1.622,4.2656 15.461,13.6992 h -1.472 c 0,0 6.324,5.5859 5.586,7.793 0,0 0.597,3.8281 1.621,3.9648 l -1.024,-0.1367 c 0,0 -0.597,1.1836 -10.304,-6.1914 0,0 -0.59,-1.7578 -6.043,-1.7578 0,0 4.121,-1.7578 0.593,-5.6055 0,0 -3.085,-3.9648 -7.793,-4.2578 0,0 -3.105,0 -3.105,-3.3984 l -0.73,-2.9297 1.765,-1.6211 c 0,0 4.567,0.2929 5.445,0.4414"
           style="fill:#ef2e31;fill-opacity:1;fill-rule:nonzero;stroke:none"
           id="path1005" />
        <path
           d="m 651.855,48.8008 c 0,0 1.622,4.2656 15.461,13.6992 h -1.472 c 0,0 6.324,5.5859 5.586,7.793 0,0 0.597,3.8281 1.621,3.9648 l -1.024,-0.1367 c 0,0 -0.597,1.1836 -10.304,-6.1914 0,0 -0.59,-1.7578 -6.043,-1.7578 0,0 4.121,-1.7578 0.593,-5.6055 0,0 -3.085,-3.9648 -7.793,-4.2578 0,0 -3.105,0 -3.105,-3.3984 l -0.73,-2.9297 1.765,-1.6211 c 0,0 4.567,0.2929 5.445,0.4414 z"
           style="fill:none;stroke:#ef2e31;stroke-width:0.67299998;stroke-linecap:butt;stroke-linejoin:miter;stroke-miterlimit:4;stroke-dasharray:none;stroke-opacity:1"
           id="path1007" />
        <path
           d="m 678.207,82.0703 5.148,10.1563 c 0,0 0.887,3.3789 -1.171,3.0859 l -15.899,-4.1211 -1.922,-0.7305 c 0,0 -8.957,-4.2617 -8.242,-12.0703 L 651.266,76.4844 650.09,72.5 c 0,0 -13.84,-0.5977 -16.777,-2.0508 0,0 -12.672,-0.7422 -22.676,18.8281 0,0 -4.422,11.4847 1.027,21.2107 l -0.867,0.879 -11.047,5.293 c 0,0 -4.137,2.5 -5.895,7.969 0,0 -1.625,5.137 -6.621,8.965 l -4.867,6.035 c 0,0 -6.758,-6.328 -15.746,-0.742 0,0 -7.652,6.64 -9.863,13.242 0,0 -5.141,10.332 -15.317,8.242 0,0 -16.043,-3.379 -28.117,6.348 l -16.918,11.172 c 0,0 -4.121,1.777 -5,1.504 l -3.398,-2.676 c 0,0 2.805,-10.313 2.953,-11.184 0,0 -0.148,-7.5 2.941,-10.594 0,0 5.743,-8.546 6.036,-11.484 0,0 -4.856,-2.227 -1.036,-5.898 l 9.426,-8.965 c 0,0 4.563,-3.965 3.684,-9.434 0,0 -1.77,-3.523 2.496,-4.98 l 5.89,-5.469 c 0,0 3.235,0.887 4.567,-1.621 l 1.914,-2.942 c 0,0 2.351,-3.23 4.273,-3.23 0,0 3.082,5 -2.214,11.035 l -2.942,1.035 c 0,0 -13.832,21.336 -23.699,43.867 l -1.035,11.485 c 0,0 5.304,2.207 9.715,-9.57 0,0 2.793,-7.813 2.793,-9.434 0,0 1.472,-10 5.746,-14.121 l 5.882,-6.914 c 0,0 3.387,-2.5 4.274,-6.035 0.887,-3.543 4.269,-5.743 5.301,-5.879 1.039,-0.157 6.039,-4.278 7.062,-5.899 1.031,-1.621 3.82,-5.019 3.82,-5.019 0,0 6.043,-8.8284 10.161,-10.2932 0,0 -0.582,-13.1055 2.8,-18.5352 0,0 3.532,-4.5898 21.649,-10.7734 l 10.594,-4.1289 c 0,0 13.55,-6.6016 25.613,-8.6719 0,0 15.75,4.8633 17.82,3.2422 0,0 3.238,-1.0352 5.289,-4.2578 0,0 -0.578,6.6015 10.742,8.9648 l 0.454,1.1797 c 0,0 -7.504,-1.6289 -2.653,5.0117 0,0 4.864,4.1211 6.473,3.5235 0,0 6.926,1.3203 11.34,4.8554 0,0 8.105,4.8633 11.492,3.3868 l 0.879,0.4414 -0.301,2.6562"
           style="fill:#ef2e31;fill-opacity:1;fill-rule:nonzero;stroke:none"
           id="path1009" />
        <path
           d="m 678.207,82.0703 5.148,10.1563 c 0,0 0.887,3.3789 -1.171,3.0859 l -15.899,-4.1211 -1.922,-0.7305 c 0,0 -8.957,-4.2617 -8.242,-12.0703 L 651.266,76.4844 650.09,72.5 c 0,0 -13.84,-0.5977 -16.777,-2.0508 0,0 -12.672,-0.7422 -22.676,18.8281 0,0 -4.422,11.4847 1.027,21.2107 l -0.867,0.879 -11.047,5.293 c 0,0 -4.137,2.5 -5.895,7.969 0,0 -1.625,5.137 -6.621,8.965 l -4.867,6.035 c 0,0 -6.758,-6.328 -15.746,-0.742 0,0 -7.652,6.64 -9.863,13.242 0,0 -5.141,10.332 -15.317,8.242 0,0 -16.043,-3.379 -28.117,6.348 l -16.918,11.172 c 0,0 -4.121,1.777 -5,1.504 l -3.398,-2.676 c 0,0 2.805,-10.313 2.953,-11.184 0,0 -0.148,-7.5 2.941,-10.594 0,0 5.743,-8.546 6.036,-11.484 0,0 -4.856,-2.227 -1.036,-5.898 l 9.426,-8.965 c 0,0 4.563,-3.965 3.684,-9.434 0,0 -1.77,-3.523 2.496,-4.98 l 5.89,-5.469 c 0,0 3.235,0.887 4.567,-1.621 l 1.914,-2.942 c 0,0 2.351,-3.23 4.273,-3.23 0,0 3.082,5 -2.214,11.035 l -2.942,1.035 c 0,0 -13.832,21.336 -23.699,43.867 l -1.035,11.485 c 0,0 5.304,2.207 9.715,-9.57 0,0 2.793,-7.813 2.793,-9.434 0,0 1.472,-10 5.746,-14.121 l 5.882,-6.914 c 0,0 3.387,-2.5 4.274,-6.035 0.887,-3.543 4.269,-5.743 5.301,-5.879 1.039,-0.157 6.039,-4.278 7.062,-5.899 1.031,-1.621 3.82,-5.019 3.82,-5.019 0,0 6.043,-8.8284 10.161,-10.2932 0,0 -0.582,-13.1055 2.8,-18.5352 0,0 3.532,-4.5898 21.649,-10.7734 l 10.594,-4.1289 c 0,0 13.55,-6.6016 25.613,-8.6719 0,0 15.75,4.8633 17.82,3.2422 0,0 3.238,-1.0352 5.289,-4.2578 0,0 -0.578,6.6015 10.742,8.9648 l 0.454,1.1797 c 0,0 -7.504,-1.6289 -2.653,5.0117 0,0 4.864,4.1211 6.473,3.5235 0,0 6.926,1.3203 11.34,4.8554 0,0 8.105,4.8633 11.492,3.3868 l 0.879,0.4414 z"
           style="fill:none;stroke:#ef2e31;stroke-width:0.67299998;stroke-linecap:butt;stroke-linejoin:miter;stroke-miterlimit:4;stroke-dasharray:none;stroke-opacity:1"
           id="path1011" />
        <path
           d="m 487.281,185.566 c 0,0 8.637,2.735 17.071,-4.328 8.445,-7.078 16.484,-12.351 24.535,-12.566 8.051,-0.176 24.734,-3.137 29.258,-8.047 4.503,-4.902 7.441,-12.949 10.793,-15.312 3.332,-2.344 2.55,-4.305 9.808,-0.782 0,0 6.281,3.731 9.809,-2.148 0,0 10.015,-14.531 11.781,-17.473 0,0 2.16,-3.328 8.434,-5.879 l 5.894,-2.566 c 0,0 -3.934,12.363 3.926,16.094 0,0 8.633,-1.375 10.203,5.507 l 1.367,1.954 9.621,4.902 29.246,-1.387 c 0,0 0.989,7.871 0.403,10.613 0,0 11.375,5.508 16.871,3.938 0,0 6.672,-5.098 9.621,-3.34 l 4.129,3.137 c 0,0 2.551,2.566 4.707,-0.395 l 3.527,-0.789 c 0,0 -1.57,-12.558 3.727,-12.351 0,0 3.336,-5.481 4.515,-6.086 l 0.782,-3.145 3.746,-0.793 0.183,-1.551 1.77,-0.8 c 0,0 9.039,9.023 1.183,26.308 0,0 -6.48,8.438 -7.847,18.438 l 13.144,21.601 c 0,0 9.032,11.77 8.032,25.899 l -2.942,1.582 v 1.172 c 0,0 2.18,1.179 1.977,3.925 l -7.86,8.457 c 0,0 -4.304,4.708 0.993,3.125 l 5.093,-3.339 c 0,0 -0.597,4.714 -6.273,16.699 0,0 0.586,1.758 4.324,0.976 0,0 0.781,2.344 -0.406,4.707 l -1.571,8.047 c 0,0 4.727,1.368 6.665,7.649 0,0 2.769,6.875 4.535,7.469 l -0.2,1.562 c 0,0 -3.335,3.723 -6.871,3.723 0,0 1.813,8.933 3.129,17.086 0,0 0,3.136 0.992,4.511 l -4.527,2.16 c 0,0 -7.051,8.633 -9.211,9.61 l -0.976,-1.172 0.39,-5.508 c 0,0 3.727,-4.492 0.391,-19.609 l -8.246,-10.996 -1.383,-0.782 -1.367,-0.195 -0.586,-2.558 c 0,0 -9.231,-4.715 -10.41,-7.657 l -1.176,0.586 c 0,0 -0.981,8.242 7.855,6.68 0,0 -0.195,5.703 2.364,5.887 l 0.183,2.355 0.985,3.914 c 0,0 0.589,4.914 3.918,6.106 0,0 7.269,4.699 2.949,15.312 0,0 -4.317,14.512 3.742,14.512 0,0 4.113,0.195 6.469,-4.719 0,0 2.754,-5.691 5.883,-6.082 l 2.359,0.598 0.191,5.886 3.344,-2.16 c 0,0 -0.984,-14.129 4.719,-13.347 l 1.758,0.195 c 0,0 1.957,10.996 -2.555,19.434 v 2.558 l -1.953,2.012 -2.559,-0.598 c 0,0 -2.551,-4.179 -4.136,-3.777 l -6.844,6.473 c 0,0 -2.949,3.152 -6.285,0.789 0,0 0.586,3.332 0.976,4.718 0,0 0.578,7.453 -5.504,3.328 0,0 -4.117,-9.617 -2.343,-17.847 0,0 3.535,-10.996 -1.176,-14.727 0,0 0.965,15.703 -0.801,25.899 l -0.977,12.965 2.168,1.371 c 0,0 1.18,4.711 2.157,5.683 0,0 3.722,5.508 1.367,8.844 0,0 -9.797,18.832 -11.379,19.621 0,0 -1.77,4.902 -5.699,3.348 l 0.211,-2.168 -2.754,0.781 c 0,0 3.328,-8.238 3.926,-9.813 0,0 -6.872,11.2 -8.047,12.168 0,0 -3.332,-0.968 -8.84,2.364 -5.492,3.328 -9.414,3.523 -9.414,3.523 0,0 -6.481,1.965 -8.438,4.52 0,0 -2.953,4.328 -5.504,2.152 l 1.184,-2.547 c 0,0 4.707,-5.297 3.34,-8.433 l -3.535,-0.204 0.789,-2.156 c 0,0 -0.407,-0.785 -3.93,3.727 0,0 -4.902,10.004 -12.77,9.219 0,0 -8.429,1.582 -11.179,-3.129 l 2.554,-5.508 c 0,0 1.754,-3.715 3.52,-4.113 l 10.418,-14.325 c 0,0 8.629,-12.961 8.043,-18.062 l 0.195,-3.731 c 0,0 -0.386,-4.715 0.781,-5.097 l 4.329,-4.118 0.382,-1.968 3.727,-3.539 c 0,0 1.383,-6.063 1.187,-6.864 l -0.796,-3.925 -2.942,-0.793 c 0,0 -8.637,13.75 -18.054,22.777 l -0.184,-1.188 -1.582,1.973 c 0,0 -3.336,-4.719 -16.297,2.363 0,0 -9.602,6.664 -15.496,2.547 l -1.184,5.684 c 0,0 -0.98,5.113 -2.156,5.699 l -2.152,-1.371 c 0,0 -2.36,3.926 -1.184,14.719 0,0 2.152,13.332 -4.902,18.058 l 0.191,1.758 c 0,0 5.492,-0.785 6.086,-0.976 l 0.969,2.546 2.949,0.583 c 0,0 2.156,3.546 -1.176,4.332 l -6.476,1.757 6.476,2.36 2.559,4.711 c 0,0 3.148,4.324 0.586,7.855 0,0 -1.758,5.305 -6.27,7.649 l -0.992,-0.789 c 0,0 3.145,-7.856 2.152,-10 h -1.16 l -3.351,6.082 -1.367,-1.571 -1.387,2.746 -1.164,0.782 -4.328,8.64 c 0,0 -0.989,-4.324 0.593,-8.64 0,0 2.747,-8.825 1.18,-10.793 0,0 -3.34,3.73 -4.312,3.535 l -1.196,-2.16 c 0,0 -3.715,0.382 -6.269,5.296 l -2.75,-2.359 -0.586,-7.055 -1.383,-0.597 -0.973,7.265 -1.371,0.192 -2.355,-1.363 -0.985,1.171 c 0,0 2.157,3.926 0.789,6.282 l -1.578,5.101 -1.168,0.196 0.192,1.777 -1.379,-0.399 0.976,4.707 -0.781,-0.597 v 1.39 l -3.73,-2.16 0.195,1.571 -2.156,0.589 2.351,4.118 -28.058,-21.981 -14.137,-12.754 -0.191,2.344 -0.395,0.988 0.395,1.379 44.554,32.965 2.164,2.355 2.942,3.922 11.57,8.633 -13.726,-5.683 5.679,3.535 -5.492,-1.973 c 0,0 -6.465,-3.519 -7.262,-5.105 0,0 -4.906,-1.75 -6.679,-1.563 l 1.371,2.156 h -0.977 c 0,0 -27.472,-10 -30.625,-16.285 0,0 0.793,-2.551 -5.887,-3.34 0,0 -3.738,-0.195 -5.296,1.575 l 1.574,2.164 -4.321,-2.164 -1.371,-5.297 2.754,0.976 0.2,-1.57 c 0,0 2.941,1.184 4.312,-1.176 l 5.48,1.965 c 0,0 5.497,2.355 5.708,1.375 0,0 -0.594,-1.57 -2.954,-2.164 l -4.113,-1.176 c 0,0 -2.164,-0.797 -1.172,-3.336 l 1.758,-1.562 3.734,2.539 v -0.977 l -2.554,-2.953 c 0,0 -6.485,-5.105 -2.938,-10.605 l -3.34,-3.524 c 0,0 -0.98,-2.554 -1.183,-3.527 l -0.781,-1.953 -1.579,-2.168 c 0,0 -1.558,-1.18 0,-3.535 l 2.161,1.566 -0.387,-1.758 1.18,-0.207 -12.567,-20.797 -0.394,-1.968 h 1.379 l -1.379,-2.153 1.175,-1.183 c 0,0 -4.515,-9.231 -5.293,-11.575 0,0 2.946,-2.554 0,-6.484 0,0 -1.972,-3.727 -1.578,-5.105 l -2.547,-3.133 c 0,0 -2.953,-2.746 -1.562,-6.289 0,0 2.937,-9.414 1.562,-11.172 l 2.153,-3.34 h 0.992 c 0,0 20.793,-15.52 46.508,-19.641 0,0 26.707,-6.277 63.996,-4.121 l 1.566,-0.183 5.699,-1.387 12.364,-3.516 c 0,0 3.926,-1.203 4.707,-2.363 0,0 2.156,1.766 1.176,3.523 l 3.933,1.582 0.781,2.942 7.457,0.383 1.77,-3.918 1.566,-0.203 3.145,0.203 c 0,0 6.273,1.367 6.476,-3.926 0,0 -1.769,-6.082 9.215,-5.695 0,0 8.45,1.957 12.957,-0.985 0,0 4.325,-1.183 2.364,-4.511 l -6.485,2.363 c 0,0 4.91,-14.934 3.149,-22.188 l 10.39,4.317 c 0,0 2.555,4.902 2.754,6.093 0,0 1.574,-3.933 -1.773,-10.019 0,0 -4.305,-6.27 -13.133,-8.633 l -1.18,14.121 c 0,0 -0.996,4.336 -4.133,3.145 l -1.953,-3.145 -1.175,2.559 c 0,0 0.187,12.363 -6.086,11.387 0,0 -4.911,-1.379 -6.082,-8.243 l -1.774,-7.851 1.176,-3.926 1.769,-7.258 c 0,0 0.579,-4.129 -0.402,-4.519 l -1.762,-1.953 c 0,0 -1.375,-1.192 -2.554,1.757 l -3.34,8.047 c 0,0 -1.957,4.317 -1.758,6.485 0,0 1.176,6.281 0,9.023 l -1.371,0.781 c 0,0 1.371,7.852 14.723,9.434 l -0.207,2.93 c 0,0 -6.668,2.746 -9.996,-0.782 0,0 -7.461,0.586 -8.84,1.778 0,0 1.375,3.332 -0.203,4.121 h -0.977 l -9.027,-8.25 h -2.555 l -1.18,-0.403 -2.941,-0.781 c 0,0 -2.348,-1.172 -3.738,-0.195 l 4.332,4.512 -0.594,1.582 -18.836,5.293 c 0,0 -67.91,-6.875 -112.473,23.945 0,0 -3.34,-11.582 -5.105,-12.363 l -1.379,-0.207 2.164,6.488 c 0,0 -1.363,3.719 -3.914,4.695 l -24.543,-43.945 -1.375,-11.399 c 0,0 3.332,-16.082 -0.191,-49.851 l 0.98,-3.145 1.75,-4.902 c 0,0 2.762,-4.902 3.547,-5.48 l 6.082,-7.079 3.734,-5.293"
           style="fill:#ef2e31;fill-opacity:1;fill-rule:nonzero;stroke:none"
           id="path1013" />
        <path
           d="m 487.281,185.566 c 0,0 8.637,2.735 17.071,-4.328 8.445,-7.078 16.484,-12.351 24.535,-12.566 8.051,-0.176 24.734,-3.137 29.258,-8.047 4.503,-4.902 7.441,-12.949 10.793,-15.312 3.332,-2.344 2.55,-4.305 9.808,-0.782 0,0 6.281,3.731 9.809,-2.148 0,0 10.015,-14.531 11.781,-17.473 0,0 2.16,-3.328 8.434,-5.879 l 5.894,-2.566 c 0,0 -3.934,12.363 3.926,16.094 0,0 8.633,-1.375 10.203,5.507 l 1.367,1.954 9.621,4.902 29.246,-1.387 c 0,0 0.989,7.871 0.403,10.613 0,0 11.375,5.508 16.871,3.938 0,0 6.672,-5.098 9.621,-3.34 l 4.129,3.137 c 0,0 2.551,2.566 4.707,-0.395 l 3.527,-0.789 c 0,0 -1.57,-12.558 3.727,-12.351 0,0 3.336,-5.481 4.515,-6.086 l 0.782,-3.145 3.746,-0.793 0.183,-1.551 1.77,-0.8 c 0,0 9.039,9.023 1.183,26.308 0,0 -6.48,8.438 -7.847,18.438 l 13.144,21.601 c 0,0 9.032,11.77 8.032,25.899 l -2.942,1.582 v 1.172 c 0,0 2.18,1.179 1.977,3.925 l -7.86,8.457 c 0,0 -4.304,4.708 0.993,3.125 l 5.093,-3.339 c 0,0 -0.597,4.714 -6.273,16.699 0,0 0.586,1.758 4.324,0.976 0,0 0.781,2.344 -0.406,4.707 l -1.571,8.047 c 0,0 4.727,1.368 6.665,7.649 0,0 2.769,6.875 4.535,7.469 l -0.2,1.562 c 0,0 -3.335,3.723 -6.871,3.723 0,0 1.813,8.933 3.129,17.086 0,0 0,3.136 0.992,4.511 l -4.527,2.16 c 0,0 -7.051,8.633 -9.211,9.61 l -0.976,-1.172 0.39,-5.508 c 0,0 3.727,-4.492 0.391,-19.609 l -8.246,-10.996 -1.383,-0.782 -1.367,-0.195 -0.586,-2.558 c 0,0 -9.231,-4.715 -10.41,-7.657 l -1.176,0.586 c 0,0 -0.981,8.242 7.855,6.68 0,0 -0.195,5.703 2.364,5.887 l 0.183,2.355 0.985,3.914 c 0,0 0.589,4.914 3.918,6.106 0,0 7.269,4.699 2.949,15.312 0,0 -4.317,14.512 3.742,14.512 0,0 4.113,0.195 6.469,-4.719 0,0 2.754,-5.691 5.883,-6.082 l 2.359,0.598 0.191,5.886 3.344,-2.16 c 0,0 -0.984,-14.129 4.719,-13.347 l 1.758,0.195 c 0,0 1.957,10.996 -2.555,19.434 v 2.558 l -1.953,2.012 -2.559,-0.598 c 0,0 -2.551,-4.179 -4.136,-3.777 l -6.844,6.473 c 0,0 -2.949,3.152 -6.285,0.789 0,0 0.586,3.332 0.976,4.718 0,0 0.578,7.453 -5.504,3.328 0,0 -4.117,-9.617 -2.343,-17.847 0,0 3.535,-10.996 -1.176,-14.727 0,0 0.965,15.703 -0.801,25.899 l -0.977,12.965 2.168,1.371 c 0,0 1.18,4.711 2.157,5.683 0,0 3.722,5.508 1.367,8.844 0,0 -9.797,18.832 -11.379,19.621 0,0 -1.77,4.902 -5.699,3.348 l 0.211,-2.168 -2.754,0.781 c 0,0 3.328,-8.238 3.926,-9.813 0,0 -6.872,11.2 -8.047,12.168 0,0 -3.332,-0.968 -8.84,2.364 -5.492,3.328 -9.414,3.523 -9.414,3.523 0,0 -6.481,1.965 -8.438,4.52 0,0 -2.953,4.328 -5.504,2.152 l 1.184,-2.547 c 0,0 4.707,-5.297 3.34,-8.433 l -3.535,-0.204 0.789,-2.156 c 0,0 -0.407,-0.785 -3.93,3.727 0,0 -4.902,10.004 -12.77,9.219 0,0 -8.429,1.582 -11.179,-3.129 l 2.554,-5.508 c 0,0 1.754,-3.715 3.52,-4.113 l 10.418,-14.325 c 0,0 8.629,-12.961 8.043,-18.062 l 0.195,-3.731 c 0,0 -0.386,-4.715 0.781,-5.097 l 4.329,-4.118 0.382,-1.968 3.727,-3.539 c 0,0 1.383,-6.063 1.187,-6.864 l -0.796,-3.925 -2.942,-0.793 c 0,0 -8.637,13.75 -18.054,22.777 l -0.184,-1.188 -1.582,1.973 c 0,0 -3.336,-4.719 -16.297,2.363 0,0 -9.602,6.664 -15.496,2.547 l -1.184,5.684 c 0,0 -0.98,5.113 -2.156,5.699 l -2.152,-1.371 c 0,0 -2.36,3.926 -1.184,14.719 0,0 2.152,13.332 -4.902,18.058 l 0.191,1.758 c 0,0 5.492,-0.785 6.086,-0.976 l 0.969,2.546 2.949,0.583 c 0,0 2.156,3.546 -1.176,4.332 l -6.476,1.757 6.476,2.36 2.559,4.711 c 0,0 3.148,4.324 0.586,7.855 0,0 -1.758,5.305 -6.27,7.649 l -0.992,-0.789 c 0,0 3.145,-7.856 2.152,-10 h -1.16 l -3.351,6.082 -1.367,-1.571 -1.387,2.746 -1.164,0.782 -4.328,8.64 c 0,0 -0.989,-4.324 0.593,-8.64 0,0 2.747,-8.825 1.18,-10.793 0,0 -3.34,3.73 -4.312,3.535 l -1.196,-2.16 c 0,0 -3.715,0.382 -6.269,5.296 l -2.75,-2.359 -0.586,-7.055 -1.383,-0.597 -0.973,7.265 -1.371,0.192 -2.355,-1.363 -0.985,1.171 c 0,0 2.157,3.926 0.789,6.282 l -1.578,5.101 -1.168,0.196 0.192,1.777 -1.379,-0.399 0.976,4.707 -0.781,-0.597 v 1.39 l -3.73,-2.16 0.195,1.571 -2.156,0.589 2.351,4.118 -28.058,-21.981 -14.137,-12.754 -0.191,2.344 -0.395,0.988 0.395,1.379 44.554,32.965 2.164,2.355 2.942,3.922 11.57,8.633 -13.726,-5.683 5.679,3.535 -5.492,-1.973 c 0,0 -6.465,-3.519 -7.262,-5.105 0,0 -4.906,-1.75 -6.679,-1.563 l 1.371,2.156 h -0.977 c 0,0 -27.472,-10 -30.625,-16.285 0,0 0.793,-2.551 -5.887,-3.34 0,0 -3.738,-0.195 -5.296,1.575 l 1.574,2.164 -4.321,-2.164 -1.371,-5.297 2.754,0.976 0.2,-1.57 c 0,0 2.941,1.184 4.312,-1.176 l 5.48,1.965 c 0,0 5.497,2.355 5.708,1.375 0,0 -0.594,-1.57 -2.954,-2.164 l -4.113,-1.176 c 0,0 -2.164,-0.797 -1.172,-3.336 l 1.758,-1.562 3.734,2.539 v -0.977 l -2.554,-2.953 c 0,0 -6.485,-5.105 -2.938,-10.605 l -3.34,-3.524 c 0,0 -0.98,-2.554 -1.183,-3.527 l -0.781,-1.953 -1.579,-2.168 c 0,0 -1.558,-1.18 0,-3.535 l 2.161,1.566 -0.387,-1.758 1.18,-0.207 -12.567,-20.797 -0.394,-1.968 h 1.379 l -1.379,-2.153 1.175,-1.183 c 0,0 -4.515,-9.231 -5.293,-11.575 0,0 2.946,-2.554 0,-6.484 0,0 -1.972,-3.727 -1.578,-5.105 l -2.547,-3.133 c 0,0 -2.953,-2.746 -1.562,-6.289 0,0 2.937,-9.414 1.562,-11.172 l 2.153,-3.34 h 0.992 c 0,0 20.793,-15.52 46.508,-19.641 0,0 26.707,-6.277 63.996,-4.121 l 1.566,-0.183 5.699,-1.387 12.364,-3.516 c 0,0 3.926,-1.203 4.707,-2.363 0,0 2.156,1.766 1.176,3.523 l 3.933,1.582 0.781,2.942 7.457,0.383 1.77,-3.918 1.566,-0.203 3.145,0.203 c 0,0 6.273,1.367 6.476,-3.926 0,0 -1.769,-6.082 9.215,-5.695 0,0 8.45,1.957 12.957,-0.985 0,0 4.325,-1.183 2.364,-4.511 l -6.485,2.363 c 0,0 4.91,-14.934 3.149,-22.188 l 10.39,4.317 c 0,0 2.555,4.902 2.754,6.093 0,0 1.574,-3.933 -1.773,-10.019 0,0 -4.305,-6.27 -13.133,-8.633 l -1.18,14.121 c 0,0 -0.996,4.336 -4.133,3.145 l -1.953,-3.145 -1.175,2.559 c 0,0 0.187,12.363 -6.086,11.387 0,0 -4.911,-1.379 -6.082,-8.243 l -1.774,-7.851 1.176,-3.926 1.769,-7.258 c 0,0 0.579,-4.129 -0.402,-4.519 l -1.762,-1.953 c 0,0 -1.375,-1.192 -2.554,1.757 l -3.34,8.047 c 0,0 -1.957,4.317 -1.758,6.485 0,0 1.176,6.281 0,9.023 l -1.371,0.781 c 0,0 1.371,7.852 14.723,9.434 l -0.207,2.93 c 0,0 -6.668,2.746 -9.996,-0.782 0,0 -7.461,0.586 -8.84,1.778 0,0 1.375,3.332 -0.203,4.121 h -0.977 l -9.027,-8.25 h -2.555 l -1.18,-0.403 -2.941,-0.781 c 0,0 -2.348,-1.172 -3.738,-0.195 l 4.332,4.512 -0.594,1.582 -18.836,5.293 c 0,0 -67.91,-6.875 -112.473,23.945 0,0 -3.34,-11.582 -5.105,-12.363 l -1.379,-0.207 2.164,6.488 c 0,0 -1.363,3.719 -3.914,4.695 l -24.543,-43.945 -1.375,-11.399 c 0,0 3.332,-16.082 -0.191,-49.851 l 0.98,-3.145 1.75,-4.902 c 0,0 2.762,-4.902 3.547,-5.48 l 6.082,-7.079 z"
           style="fill:none;stroke:#ef2e31;stroke-width:0.67299998;stroke-linecap:butt;stroke-linejoin:miter;stroke-miterlimit:4;stroke-dasharray:none;stroke-opacity:1"
           id="path1015" />
        <path
           d="m 499.785,339.547 c 0,0 5.746,-8.531 3.106,-18.258 0,0 1.761,-3.828 0.875,-4.562 l -1.184,-0.614 -0.434,1.348 -0.886,1.758 -2.949,2.363 1.332,4.719 c 0,0 1.171,3.535 0.14,3.972 0,0 -3.672,5.594 0,9.274"
           style="fill:#ef2e31;fill-opacity:1;fill-rule:nonzero;stroke:none"
           id="path1017" />
        <path
           d="m 499.785,339.547 c 0,0 5.746,-8.531 3.106,-18.258 0,0 1.761,-3.828 0.875,-4.562 l -1.184,-0.614 -0.434,1.348 -0.886,1.758 -2.949,2.363 1.332,4.719 c 0,0 1.171,3.535 0.14,3.972 0,0 -3.672,5.594 0,9.274 z"
           style="fill:none;stroke:#ef2e31;stroke-width:0.67299998;stroke-linecap:butt;stroke-linejoin:miter;stroke-miterlimit:4;stroke-dasharray:none;stroke-opacity:1"
           id="path1019" />
        <path
           d="m 618.59,412.262 2.789,0.734 7.371,-5.59 c 0,0 2.941,-1.621 0.73,-2.937 l -2.21,0.586 -2.79,1.312 v -1.605 l 1.168,-4.582 c 0,0 0.149,-1.461 -1.168,-0.867 l -1.472,0.433 -1.035,2.207 c 0,0 -3.676,-0.441 -2.793,2.953 0,0 0.886,3.821 0,5.879 l -0.59,1.477"
           style="fill:#ef2e31;fill-opacity:1;fill-rule:nonzero;stroke:none"
           id="path1021" />
        <path
           d="m 618.59,412.262 2.789,0.734 7.371,-5.59 c 0,0 2.941,-1.621 0.73,-2.937 l -2.21,0.586 -2.79,1.312 v -1.605 l 1.168,-4.582 c 0,0 0.149,-1.461 -1.168,-0.867 l -1.472,0.433 -1.035,2.207 c 0,0 -3.676,-0.441 -2.793,2.953 0,0 0.886,3.821 0,5.879 z"
           style="fill:none;stroke:#ef2e31;stroke-width:0.67299998;stroke-linecap:butt;stroke-linejoin:miter;stroke-miterlimit:4;stroke-dasharray:none;stroke-opacity:1"
           id="path1023" />
        <path
           d="m 583.402,444.199 2.364,2.66 1.019,1.176 c 0,0 2.512,4.563 3.102,3.82 l 0.14,-1.027 -0.3,-0.734 0.453,-0.891 -0.59,-1.758 -3.086,-3.531 c 0,0 -1.625,-2.656 -2.805,-1.469 0,0 -0.59,1.325 -0.297,1.754"
           style="fill:#ef2e31;fill-opacity:1;fill-rule:nonzero;stroke:none"
           id="path1025" />
        <path
           d="m 583.402,444.199 2.364,2.66 1.019,1.176 c 0,0 2.512,4.563 3.102,3.82 l 0.14,-1.027 -0.3,-0.734 0.453,-0.891 -0.59,-1.758 -3.086,-3.531 c 0,0 -1.625,-2.656 -2.805,-1.469 0,0 -0.59,1.325 -0.297,1.754 z"
           style="fill:none;stroke:#ef2e31;stroke-width:0.67299998;stroke-linecap:butt;stroke-linejoin:miter;stroke-miterlimit:4;stroke-dasharray:none;stroke-opacity:1"
           id="path1027" />
        <path
           d="m 585.914,438.172 1.024,-1.328 c 0,0 1.324,-1.473 -0.153,-1.914 l -1.324,-0.301 c 0,0 -2.496,-0.277 -2.641,-2.637 l 0.145,-1.039 0.883,-0.586 v -2.508 c 0,0 -0.149,-1.171 1.179,-0.879 l 5.293,1.477 c 0,0 0.879,1.02 1.473,-0.297 0,0 1.48,-2.359 2.648,-1.914 l -0.14,3.231 c 0,0 2.789,0.152 1.773,2.515 l -1.035,2.203 -0.297,1.024 c 0,0 0,7.226 -0.594,7.519 l -0.582,-1.035 -0.152,-1.18 c 0,0 -2.066,-1.476 -1.328,1.622 l 0.441,1.769 -1.328,-0.883 -0.281,0.883 -0.445,-0.297 -0.293,2.504 c 0,0 -3.242,-2.351 -3.242,-3.09 l -0.434,-3.523 c 0,0 -1.477,0.578 -1.477,-0.598 0,0 0.153,-0.738 0.887,-0.738"
           style="fill:#ef2e31;fill-opacity:1;fill-rule:nonzero;stroke:none"
           id="path1029" />
        <path
           d="m 585.914,438.172 1.024,-1.328 c 0,0 1.324,-1.473 -0.153,-1.914 l -1.324,-0.301 c 0,0 -2.496,-0.277 -2.641,-2.637 l 0.145,-1.039 0.883,-0.586 v -2.508 c 0,0 -0.149,-1.171 1.179,-0.879 l 5.293,1.477 c 0,0 0.879,1.02 1.473,-0.297 0,0 1.48,-2.359 2.648,-1.914 l -0.14,3.231 c 0,0 2.789,0.152 1.773,2.515 l -1.035,2.203 -0.297,1.024 c 0,0 0,7.226 -0.594,7.519 l -0.582,-1.035 -0.152,-1.18 c 0,0 -2.066,-1.476 -1.328,1.622 l 0.441,1.769 -1.328,-0.883 -0.281,0.883 -0.445,-0.297 -0.293,2.504 c 0,0 -3.242,-2.351 -3.242,-3.09 l -0.434,-3.523 c 0,0 -1.477,0.578 -1.477,-0.598 0,0 0.153,-0.738 0.887,-0.738 z"
           style="fill:none;stroke:#ef2e31;stroke-width:0.67299998;stroke-linecap:butt;stroke-linejoin:miter;stroke-miterlimit:4;stroke-dasharray:none;stroke-opacity:1"
           id="path1031" />
        <path
           d="m 593.566,452.895 -1.48,-0.887 0.883,2.504 1.472,2.211 0.598,-1.332 1.313,2.359 -0.586,-2.957 0.14,-1.898 -0.293,-1.04 -0.574,-0.582 -0.891,-0.445 h -1.32 v 1.027 l 0.738,1.04"
           style="fill:#ef2e31;fill-opacity:1;fill-rule:nonzero;stroke:none"
           id="path1033" />
        <path
           d="m 593.566,452.895 -1.48,-0.887 0.883,2.504 1.472,2.211 0.598,-1.332 1.313,2.359 -0.586,-2.957 0.14,-1.898 -0.293,-1.04 -0.574,-0.582 -0.891,-0.445 h -1.32 v 1.027 z"
           style="fill:none;stroke:#ef2e31;stroke-width:0.67299998;stroke-linecap:butt;stroke-linejoin:miter;stroke-miterlimit:4;stroke-dasharray:none;stroke-opacity:1"
           id="path1035" />
        <path
           d="m 599.75,441.258 -0.441,1.035 -0.739,1.184 -0.297,1.605 c 0,0 -0.89,1.477 -1.46,0.305 l 0.136,-2.942 c 0,0 -2.062,-0.886 -0.597,-2.519 l 0.461,-0.723 0.429,-1.773 1.473,-1.024 1.035,4.852"
           style="fill:#ef2e31;fill-opacity:1;fill-rule:nonzero;stroke:none"
           id="path1037" />
        <path
           d="m 599.75,441.258 -0.441,1.035 -0.739,1.184 -0.297,1.605 c 0,0 -0.89,1.477 -1.46,0.305 l 0.136,-2.942 c 0,0 -2.062,-0.886 -0.597,-2.519 l 0.461,-0.723 0.429,-1.773 1.473,-1.024 z"
           style="fill:none;stroke:#ef2e31;stroke-width:0.67299998;stroke-linecap:butt;stroke-linejoin:miter;stroke-miterlimit:4;stroke-dasharray:none;stroke-opacity:1"
           id="path1039" />
        <path
           d="m 601.363,439.926 -0.875,0.742 v 1.625 l -0.461,1.031 -0.277,1.899 c 0,0 -0.293,2.812 1.477,2.519 0,0 1.312,-1.039 0.574,-2.801 l -0.438,-5.015"
           style="fill:#ef2e31;fill-opacity:1;fill-rule:nonzero;stroke:none"
           id="path1041" />
        <path
           d="m 601.363,439.926 -0.875,0.742 v 1.625 l -0.461,1.031 -0.277,1.899 c 0,0 -0.293,2.812 1.477,2.519 0,0 1.312,-1.039 0.574,-2.801 z"
           style="fill:none;stroke:#ef2e31;stroke-width:0.67299998;stroke-linecap:butt;stroke-linejoin:miter;stroke-miterlimit:4;stroke-dasharray:none;stroke-opacity:1"
           id="path1043" />
        <path
           d="m 602.691,449.645 -1.035,0.89 -1.031,0.582 -0.598,2.813 h 0.739 l 0.89,0.129 c 0,0 -0.148,1.332 0.742,0.453 l 0.739,-0.289 0.879,-1.914 0.148,-0.887 -0.734,0.148 -0.739,-1.925"
           style="fill:#ef2e31;fill-opacity:1;fill-rule:nonzero;stroke:none"
           id="path1045" />
        <path
           d="m 602.691,449.645 -1.035,0.89 -1.031,0.582 -0.598,2.813 h 0.739 l 0.89,0.129 c 0,0 -0.148,1.332 0.742,0.453 l 0.739,-0.289 0.879,-1.914 0.148,-0.887 -0.734,0.148 z"
           style="fill:none;stroke:#ef2e31;stroke-width:0.67299998;stroke-linecap:butt;stroke-linejoin:miter;stroke-miterlimit:4;stroke-dasharray:none;stroke-opacity:1"
           id="path1047" />
        <path
           d="m 597.535,450.094 0.59,1.023 0.148,3.676 -1.183,0.891 v -1.325 c 0,0 0.738,-3.675 0.445,-4.265"
           style="fill:#ef2e31;fill-opacity:1;fill-rule:nonzero;stroke:none"
           id="path1049" />
        <path
           d="m 597.535,450.094 0.59,1.023 0.148,3.676 -1.183,0.891 v -1.325 c 0,0 0.738,-3.675 0.445,-4.265 z"
           style="fill:none;stroke:#ef2e31;stroke-width:0.67299998;stroke-linecap:butt;stroke-linejoin:miter;stroke-miterlimit:4;stroke-dasharray:none;stroke-opacity:1"
           id="path1051" />
        <path
           d="m 608.434,441.559 0.433,0.586 -0.281,1.769 1.18,2.5 c 0,0 1.75,1.031 3.23,-2.215 l 1.184,-0.722 2.937,-0.739 -0.152,1.032 2.66,-2.067 4.121,-4.121 1.027,-0.152 1.911,-1.321 1.031,-0.441 h 0.738 l 1.18,0.148 1.019,-0.304 3.84,-1.465 c 0,0 4.262,-2.793 4.563,-5.152 0,0 0.425,-1.477 -1.922,-0.438 0,0 -3.528,2.496 -4.559,2.344 0,0 0.446,-2.789 4.711,-5.149 l 1.77,-1.175 c 0,0 6.613,-2.504 7.793,-5.446 l 1.332,-1.172 -3.535,-1.921 1.765,-0.434 2.805,-0.445 c 0,0 2.5,-0.153 4.262,-2.204 l -7.364,-1.625 c 0,0 -3.523,-0.589 -6.172,1.172 0,0 -3.843,1.914 -4.875,2.368 l -0.718,-1.481 c 0,0 -0.153,-1.172 -2.805,-0.887 0,0 -3.383,1.039 -2.793,3.395 0,0 1.023,0.586 2.055,0.285 l 0.293,1.336 c 0,0 1.183,1.613 0.148,2.355 l -1.473,2.059 -1.765,1.473 -0.879,1.332 -0.738,1.609 -3.383,4.707 -2.66,2.953 c 0,0 -2.344,2.645 -3.965,2.203 l -0.887,-0.441 -1.316,0.441 -0.446,-0.738 -0.738,-0.297 -1.187,0.297 -0.422,-0.297 c 0,0 -0.309,-2.199 -2.52,-1.027 l -3.375,3.828 -1.922,4.711 c 0,0 -0.293,3.68 0.883,4.273 0,0 1.469,-2.796 1.621,-5.007 0,0 1.031,-2.805 2.211,-3.235 0,0 -0.734,3.383 -1.472,4.262 0,0 -1.911,4.566 -1.321,5.754 0,0 1.168,-1.774 1.461,-3.551 l 1.481,-3.523"
           style="fill:#ef2e31;fill-opacity:1;fill-rule:nonzero;stroke:none"
           id="path1053" />
        <path
           d="m 608.434,441.559 0.433,0.586 -0.281,1.769 1.18,2.5 c 0,0 1.75,1.031 3.23,-2.215 l 1.184,-0.722 2.937,-0.739 -0.152,1.032 2.66,-2.067 4.121,-4.121 1.027,-0.152 1.911,-1.321 1.031,-0.441 h 0.738 l 1.18,0.148 1.019,-0.304 3.84,-1.465 c 0,0 4.262,-2.793 4.563,-5.152 0,0 0.425,-1.477 -1.922,-0.438 0,0 -3.528,2.496 -4.559,2.344 0,0 0.446,-2.789 4.711,-5.149 l 1.77,-1.175 c 0,0 6.613,-2.504 7.793,-5.446 l 1.332,-1.172 -3.535,-1.921 1.765,-0.434 2.805,-0.445 c 0,0 2.5,-0.153 4.262,-2.204 l -7.364,-1.625 c 0,0 -3.523,-0.589 -6.172,1.172 0,0 -3.843,1.914 -4.875,2.368 l -0.718,-1.481 c 0,0 -0.153,-1.172 -2.805,-0.887 0,0 -3.383,1.039 -2.793,3.395 0,0 1.023,0.586 2.055,0.285 l 0.293,1.336 c 0,0 1.183,1.613 0.148,2.355 l -1.473,2.059 -1.765,1.473 -0.879,1.332 -0.738,1.609 -3.383,4.707 -2.66,2.953 c 0,0 -2.344,2.645 -3.965,2.203 l -0.887,-0.441 -1.316,0.441 -0.446,-0.738 -0.738,-0.297 -1.187,0.297 -0.422,-0.297 c 0,0 -0.309,-2.199 -2.52,-1.027 l -3.375,3.828 -1.922,4.711 c 0,0 -0.293,3.68 0.883,4.273 0,0 1.469,-2.796 1.621,-5.007 0,0 1.031,-2.805 2.211,-3.235 0,0 -0.734,3.383 -1.472,4.262 0,0 -1.911,4.566 -1.321,5.754 0,0 1.168,-1.774 1.461,-3.551 z"
           style="fill:none;stroke:#ef2e31;stroke-width:0.67299998;stroke-linecap:butt;stroke-linejoin:miter;stroke-miterlimit:4;stroke-dasharray:none;stroke-opacity:1"
           id="path1055" />
        <path
           d="m 597.828,464.961 19.289,-6.918 1.028,-1.031 10.898,-5.004 27.23,-13.391 c 0,0 0,-0.59 -0.867,-0.59 l 1.606,-1.918 -1.762,0.141 0.285,-2.496 -1.176,0.441 -8.691,3.977 0.742,-1.328 c 0,0 -5.73,3.824 -6.336,3.527 l 0.297,-0.738 -2.348,1.625 -0.89,1.187 -3.086,1.754 1.172,-1.461 -2.504,1.176 -4.707,3.387 -2.641,1.625 -20.758,11.172 -3.535,2.215 1.02,-2.364 -2.344,2.364 -1.922,2.648"
           style="fill:#ef2e31;fill-opacity:1;fill-rule:nonzero;stroke:none"
           id="path1057" />
        <path
           d="m 597.828,464.961 19.289,-6.918 1.028,-1.031 10.898,-5.004 27.23,-13.391 c 0,0 0,-0.59 -0.867,-0.59 l 1.606,-1.918 -1.762,0.141 0.285,-2.496 -1.176,0.441 -8.691,3.977 0.742,-1.328 c 0,0 -5.73,3.824 -6.336,3.527 l 0.297,-0.738 -2.348,1.625 -0.89,1.187 -3.086,1.754 1.172,-1.461 -2.504,1.176 -4.707,3.387 -2.641,1.625 -20.758,11.172 -3.535,2.215 1.02,-2.364 -2.344,2.364 z"
           style="fill:none;stroke:#ef2e31;stroke-width:0.67299998;stroke-linecap:butt;stroke-linejoin:miter;stroke-miterlimit:4;stroke-dasharray:none;stroke-opacity:1"
           id="path1059" />
        <path
           d="m 597.383,462.758 -0.141,-1.481 0.738,-1.472 z"
           style="fill:#ef2e31;fill-opacity:1;fill-rule:nonzero;stroke:none"
           id="path1061" />
        <path
           d="m 597.383,462.758 -0.141,-1.481 0.738,-1.472 z"
           style="fill:none;stroke:#ef2e31;stroke-width:0.67299998;stroke-linecap:butt;stroke-linejoin:miter;stroke-miterlimit:4;stroke-dasharray:none;stroke-opacity:1"
           id="path1063" />
        <path
           d="m 597.828,464.363 0.445,-2.785 1.184,-1.035 0.145,-1.609 0.293,-1.77 0.441,-1.328 c 0,0 1.465,0 0.891,1.625 l 0.429,0.434 -0.722,1.039 -1.625,3.23 -1.481,2.199"
           style="fill:#ef2e31;fill-opacity:1;fill-rule:nonzero;stroke:none"
           id="path1065" />
        <path
           d="m 597.828,464.363 0.445,-2.785 1.184,-1.035 0.145,-1.609 0.293,-1.77 0.441,-1.328 c 0,0 1.465,0 0.891,1.625 l 0.429,0.434 -0.722,1.039 -1.625,3.23 z"
           style="fill:none;stroke:#ef2e31;stroke-width:0.67299998;stroke-linecap:butt;stroke-linejoin:miter;stroke-miterlimit:4;stroke-dasharray:none;stroke-opacity:1"
           id="path1067" />
        <path
           d="m 718.688,379.578 c 0,0 1.628,-8.543 10.453,-14.269 0,0 1.328,-0.446 0.882,-3.692 l 0.446,-2.355 c 0,0 0.586,-2.211 1.472,-2.344 l 0.735,0.285 0.73,-0.594 1.617,-2.043 c 0,0 1.485,-3.406 2.965,-0.156 0,0 1.453,0.735 -0.316,6.778 l 0.734,0.73 c 0,0 1.926,0 1.035,1.32 0,0 -0.144,1.039 0.891,0 0,0 3.234,-3.679 4.117,-3.824 l -1.035,2.051 -2.941,5.008 c 0,0 -1.176,1.48 0.445,1.039 l 1.172,-0.739 c 0,0 2.211,-1.757 1.324,0.739 l -3.973,5.148 -1.769,1.621 -0.582,0.149 0.898,-1.77 c 0,0 1.012,-2.211 -0.468,-1.027 l -1.168,1.027 c 0,0 -2.801,3.965 -4.411,3.242 l 0.293,-0.882 -1.765,0.593 c 0,0 -1.91,2.203 -1.035,-0.593 0,0 1.468,-3.247 -0.875,-2.071 l -3.829,2.367 1.176,-3.683 -7.218,7.945"
           style="fill:#ef2e31;fill-opacity:1;fill-rule:nonzero;stroke:none"
           id="path1069" />
        <path
           d="m 718.688,379.578 c 0,0 1.628,-8.543 10.453,-14.269 0,0 1.328,-0.446 0.882,-3.692 l 0.446,-2.355 c 0,0 0.586,-2.211 1.472,-2.344 l 0.735,0.285 0.73,-0.594 1.617,-2.043 c 0,0 1.485,-3.406 2.965,-0.156 0,0 1.453,0.735 -0.316,6.778 l 0.734,0.73 c 0,0 1.926,0 1.035,1.32 0,0 -0.144,1.039 0.891,0 0,0 3.234,-3.679 4.117,-3.824 l -1.035,2.051 -2.941,5.008 c 0,0 -1.176,1.48 0.445,1.039 l 1.172,-0.739 c 0,0 2.211,-1.757 1.324,0.739 l -3.973,5.148 -1.769,1.621 -0.582,0.149 0.898,-1.77 c 0,0 1.012,-2.211 -0.468,-1.027 l -1.168,1.027 c 0,0 -2.801,3.965 -4.411,3.242 l 0.293,-0.882 -1.765,0.593 c 0,0 -1.91,2.203 -1.035,-0.593 0,0 1.468,-3.247 -0.875,-2.071 l -3.829,2.367 1.176,-3.683 z"
           style="fill:none;stroke:#ef2e31;stroke-width:0.67299998;stroke-linecap:butt;stroke-linejoin:miter;stroke-miterlimit:4;stroke-dasharray:none;stroke-opacity:1"
           id="path1071" />
        <path
           d="m 734.285,337.477 c 0,0 0.891,-0.739 1.328,-0.293 0,0 1.336,1.324 2.375,1.324 l 0.723,0.144 0.586,0.594 c 0,0 0.73,1.031 0.883,-0.437 0,0 0.586,-4.414 -0.293,-4.571 l -1.176,0.293 -2.652,-0.293 c 0,0 -3.383,0.45 -1.774,3.239"
           style="fill:#ef2e31;fill-opacity:1;fill-rule:nonzero;stroke:none"
           id="path1073" />
        <path
           d="m 734.285,337.477 c 0,0 0.891,-0.739 1.328,-0.293 0,0 1.336,1.324 2.375,1.324 l 0.723,0.144 0.586,0.594 c 0,0 0.73,1.031 0.883,-0.437 0,0 0.586,-4.414 -0.293,-4.571 l -1.176,0.293 -2.652,-0.293 c 0,0 -3.383,0.45 -1.774,3.239 z"
           style="fill:none;stroke:#ef2e31;stroke-width:0.67299998;stroke-linecap:butt;stroke-linejoin:miter;stroke-miterlimit:4;stroke-dasharray:none;stroke-opacity:1"
           id="path1075" />
        <path
           d="m 739.887,345.426 1.031,-0.735 c 0,0 0.875,-1.468 1.926,-0.433 l 0.863,0.586 0.742,-0.586 0.446,-1.332 0.293,-2.344 0.296,-1.191 0.297,-1.477 -0.742,-0.144 -0.738,0.593 -0.887,0.586 -0.738,0.442 -0.883,0.449 -1.613,2.203 -0.883,1.18 -0.727,1.773 c 0,0 -1.175,2.344 1.317,0.43"
           style="fill:#ef2e31;fill-opacity:1;fill-rule:nonzero;stroke:none"
           id="path1077" />
        <path
           d="m 739.887,345.426 1.031,-0.735 c 0,0 0.875,-1.468 1.926,-0.433 l 0.863,0.586 0.742,-0.586 0.446,-1.332 0.293,-2.344 0.296,-1.191 0.297,-1.477 -0.742,-0.144 -0.738,0.593 -0.887,0.586 -0.738,0.442 -0.883,0.449 -1.613,2.203 -0.883,1.18 -0.727,1.773 c 0,0 -1.175,2.344 1.317,0.43 z"
           style="fill:none;stroke:#ef2e31;stroke-width:0.67299998;stroke-linecap:butt;stroke-linejoin:miter;stroke-miterlimit:4;stroke-dasharray:none;stroke-opacity:1"
           id="path1079" />
        <path
           d="m 350.684,284.727 -15.571,1.511 v 8.547 l 4.52,11.543 19.586,7.031 8.043,-11.55 c 0,0 -2.008,-5.481 -2.766,-7.766 l -13.812,-9.316"
           style="fill:#263d96;fill-opacity:1;fill-rule:nonzero;stroke:none"
           id="path1081" />
        <path
           d="m 350.684,284.727 -15.571,1.511 v 8.547 l 4.52,11.543 19.586,7.031 8.043,-11.55 c 0,0 -2.008,-5.481 -2.766,-7.766 z"
           style="fill:none;stroke:#263d96;stroke-width:0.67299998;stroke-linecap:butt;stroke-linejoin:miter;stroke-miterlimit:4;stroke-dasharray:none;stroke-opacity:1"
           id="path1083" />
      </g>
    </g>
  </g>
</svg>
